<svg xmlns="http://www.w3.org/2000/svg" width="1084.372" height="300.432" viewBox="0 0 1084.372 300.432">
  <g id="Groupe_1283" data-name="Groupe 1283" transform="translate(107.961 -336.161)">
    <g id="Groupe_497" data-name="Groupe 497" transform="translate(-107.961 336.161)">
      <rect id="Rectangle_79" data-name="Rectangle 79" width="73.062" height="230.518" transform="translate(647.853 68.488)" fill="#dfeafd"/>
      <rect id="Rectangle_80" data-name="Rectangle 80" width="79.463" height="292.812" transform="translate(231.801 299.006) rotate(180)" fill="#dfeafd"/>
      <rect id="Rectangle_81" data-name="Rectangle 81" width="43.112" height="200.798" transform="translate(109.225 98.208)" fill="#dfeafd"/>
      <rect id="Rectangle_82" data-name="Rectangle 82" width="147.574" height="166.619" transform="translate(231.801 132.387)" fill="#dfeafd"/>
      <rect id="Rectangle_86" data-name="Rectangle 86" width="147.574" height="98.296" transform="translate(676.924 200.71)" fill="#dfeafd"/>
      <rect id="Rectangle_87" data-name="Rectangle 87" width="147.574" height="138.196" transform="translate(0 162.235)" fill="#dfeafd"/>
      <rect id="Rectangle_89" data-name="Rectangle 89" width="147.574" height="124.649" transform="translate(290.916 175.782)" fill="#dfeafd"/>
      <rect id="Rectangle_88" data-name="Rectangle 88" width="147.574" height="138.196" transform="translate(936.798 162.235)" fill="#dfeafd"/>
      <rect id="Rectangle_83" data-name="Rectangle 83" width="135.661" height="223.496" transform="translate(389.402 75.51)" fill="#dfeafd"/>
      <rect id="Rectangle_84" data-name="Rectangle 84" width="135.661" height="148.82" transform="translate(516.355 150.186)" fill="#dfeafd"/>
      <rect id="Rectangle_77" data-name="Rectangle 77" width="90.302" height="299.006" transform="translate(877.896)" fill="#dfeafd"/>
      <rect id="Rectangle_78" data-name="Rectangle 78" width="101.62" height="196.592" transform="translate(877.896 299.006) rotate(180)" fill="#dfeafd"/>
    </g>
    <path id="Tracé_279" data-name="Tracé 279" d="M1091.957,1105.72a.572.572,0,0,1-.572-.572v-8.232h-27.464v8.231a.572.572,0,0,1-1.144,0v-8.231h-3.738v-1.144h3.738v-3.821h-3.738v-1.144h3.738v-3.817h-3.738v-1.144h37.227v1.144h-3.738v3.821h3.738v1.144h-3.738v3.821h3.738v1.144h-3.738v8.231A.572.572,0,0,1,1091.957,1105.72Zm-28.036-9.945h27.466v-3.821h-27.466Zm0-4.964h27.466v-3.821h-27.466Z" transform="translate(-474.492 -471.98)" fill="#141457"/>
    <path id="Tracé_280" data-name="Tracé 280" d="M696.65,1105.72a.572.572,0,0,1-.572-.572v-8.232H668.614v8.231a.572.572,0,0,1-1.144,0v-8.231h-3.738v-1.144h3.738v-3.821h-3.738v-1.144h3.738v-3.817h-3.738v-1.144h37.227v1.144h-3.738v3.821h3.738v1.144h-3.738v3.821h3.738v1.144h-3.738v8.231A.572.572,0,0,1,696.65,1105.72Zm-28.036-9.945h27.466v-3.821H668.614Zm0-4.964h27.466v-3.821H668.614Z" transform="translate(-356.207 -471.98)" fill="#141457"/>
    <path id="Tracé_17" data-name="Tracé 17" d="M625.007,998.288a28.742,28.742,0,1,1-28.742,28.742A28.741,28.741,0,0,1,625.007,998.288Z" transform="translate(-336.019 -445.78)" fill="#7faaf6"/>
    <path id="Tracé_18" data-name="Tracé 18" d="M623.491,1002.582a22.011,22.011,0,1,1-22.011,22.011h0A22.011,22.011,0,0,1,623.491,1002.582Z" transform="translate(-337.58 -447.065)" fill="#dfeafd"/>
    <path id="Tracé_281" data-name="Tracé 281" d="M624.764,1079.282a.573.573,0,0,1-.572-.572v-22.6l-.759-.035a29.311,29.311,0,0,1,1.308-58.592q.674,0,1.353.031a29.311,29.311,0,0,1,0,58.561l-.759.035v22.6A.572.572,0,0,1,624.764,1079.282Zm.023-80.664q-.712,0-1.429.035a28.17,28.17,0,0,0,0,56.27l.834.042v-8.027l-10.632-10.633a.571.571,0,0,1,0-.808.569.569,0,0,1,.807,0l9.824,9.823v-18.535a.572.572,0,1,1,1.144,0v9.486l5.156-5.156a.571.571,0,0,1,.772.032.573.573,0,0,1,0,.809l-5.929,5.928v17.079l.835-.042a28.17,28.17,0,0,0-1.383-56.3Z" transform="translate(-335.776 -445.538)" fill="#141457"/>
    <path id="Tracé_43" data-name="Tracé 43" d="M396.956,840.2h74.388V1026.87H330.9V980.513H319.676v46.143H315V980.513h-4.819V954.125h20.727V828.8h66.052V840.2Z" transform="translate(-250.416 -395.067)" fill="#fff"/>
    <path id="Tracé_44" data-name="Tracé 44" d="M382.257,947.648a1.367,1.367,0,0,1,0,2.733H363.634a1.367,1.367,0,1,1,0-2.733Zm-42.5-79.748h6.672a1.367,1.367,0,0,1,0,2.733h-6.672m0,8.66h6.672a1.367,1.367,0,0,1,0,2.733h-6.672m0,8.66h6.672a1.367,1.367,0,0,1,0,2.733h-6.672m0,8.66h6.672a1.367,1.367,0,0,1,0,2.733h-6.672m0,8.66h6.672a1.367,1.367,0,1,1,0,2.733h-6.672m0,8.66h6.672a1.367,1.367,0,1,1,0,2.733h-6.672m0,8.66h6.672a1.367,1.367,0,1,1,0,2.733h-6.672m0,8.66h6.672a1.367,1.367,0,1,1,0,2.733h-6.672m0-105.269h42.5a1.366,1.366,0,0,1,0,2.733h-42.5m0,8.66h42.5a1.367,1.367,0,0,1,0,2.733h-42.5m42.5,8.66a1.367,1.367,0,0,1,0,2.733H363.634a1.367,1.367,0,0,1,0-2.733Zm0,11.393a1.367,1.367,0,0,1,0,2.733H363.634a1.367,1.367,0,0,1,0-2.733Zm0,11.393a1.367,1.367,0,0,1,0,2.733H363.634a1.367,1.367,0,0,1,0-2.733Zm0,11.393a1.367,1.367,0,0,1,0,2.733H363.634a1.367,1.367,0,0,1,0-2.733Zm0,11.393a1.367,1.367,0,0,1,0,2.733H363.634a1.367,1.367,0,1,1,0-2.733Zm0,11.393a1.367,1.367,0,0,1,0,2.733H363.634a1.367,1.367,0,0,1,0-2.733Zm0,11.393a1.367,1.367,0,0,1,0,2.733H363.634a1.367,1.367,0,1,1,0-2.733Z" transform="translate(-259.265 -399.948)" fill="#bad1f8"/>
    <path id="Tracé_45" data-name="Tracé 45" d="M462.055,1045.29v8.064H363.635v38.292H350.25v-38.292h-10.5v-8.064Z" transform="translate(-259.265 -459.844)" fill="#7faaf6"/>
    <path id="Tracé_46" data-name="Tracé 46" d="M353.249,883.751h14.143V970.39H353.249Z" transform="translate(-263.303 -411.508)" fill="#bfd5fa"/>
    <path id="Tracé_47" data-name="Tracé 47" d="M437.469,883H491.3v108.7H437.469Z" transform="translate(-288.504 -411.284)" fill="#bfd5fa"/>
    <g id="Groupe_454" data-name="Groupe 454" transform="translate(149.288 527.952)">
      <path id="Tracé_48" data-name="Tracé 48" d="M437.929,993.969l53.181-30.721v14.645l-53.181,30.72Z" transform="translate(-437.929 -963.248)" fill="#f2f7ff"/>
      <path id="Tracé_49" data-name="Tracé 49" d="M437.929,1020.82,491.11,990.1V998.5l-44.356,25.622h-8.826Z" transform="translate(-437.929 -971.282)" fill="#f2f7ff"/>
    </g>
    <path id="Tracé_50" data-name="Tracé 50" d="M396.014,1062.609a1.367,1.367,0,1,1,0-2.733h3.714a1.366,1.366,0,0,1,1.367,1.367h0a1.356,1.356,0,0,1-.062.406l-2.643,10.544a1.365,1.365,0,0,1-2.662-.6c0-.02.01-.041.015-.061l2.237-8.923Zm-14.016,0a1.367,1.367,0,1,1,0-2.733h2.582a1.367,1.367,0,0,1,1.367,1.367h0v10.62a1.367,1.367,0,0,1-2.733.005v-9.255Zm7.837-2.733h1.955a2.229,2.229,0,0,1,1.581.659h0a2.238,2.238,0,0,1,.658,1.586v8.864a2.247,2.247,0,0,1-2.242,2.242h-1.955a2.237,2.237,0,0,1-1.586-.659,1.174,1.174,0,0,1-.105-.117,2.226,2.226,0,0,1-.553-1.472v-8.859a2.234,2.234,0,0,1,.658-1.581h0a2.233,2.233,0,0,1,1.586-.659Zm1.467,2.733h-.981v7.887h.981Z" transform="translate(-271.497 -464.209)" fill="#141457"/>
    <path id="Tracé_51" data-name="Tracé 51" d="M366.483,1045.29v46.356H351.7v-38.292h-2.425v-8.064Z" transform="translate(-262.113 -459.844)" fill="#bfd5fa"/>
    <path id="Tracé_282" data-name="Tracé 282" d="M471.1,1027.2a.574.574,0,0,1-.573-.572v-186.1H378.971V953.881a.572.572,0,0,1-.572.572H310.5V979.7H452.962a.572.572,0,0,1,.572.572v46.356a.572.572,0,0,1-1.144,0v-11.018H397.284v11.018a.572.572,0,1,1-1.144,0V980.84H355.112v45.785a.572.572,0,1,1-1.144,0v-4.453h-13.6v5.022h-.871v-.572H337.9a.572.572,0,1,1-1.144,0V980.84h-5.528v45.785a.572.572,0,1,1-1.144,0V980.84H320v45.785a.572.572,0,1,1-1.144,0V980.84h-3.535v45.785a.572.572,0,1,1-1.144,0V980.84h-4.247a.574.574,0,0,1-.573-.573V953.881a.574.574,0,0,1,.573-.573h20.154V828.56a.573.573,0,0,1,.572-.573h66.052a.573.573,0,0,1,.573.573v10.823H471.1a.573.573,0,0,1,.572.573v186.672A.573.573,0,0,1,471.1,1027.2Zm-130.737-6.17h13.606v-28.6H340.363Zm56.921-6.568,55.108,0v-10.447H397.284Zm0-11.59,55.108,0V992.429H397.284Zm0-11.589h55.108V980.839H397.284Zm-56.921,0h13.606v-3.747H340.363Zm0-37.977h13.606V908.88H340.363Zm14.177-91.144a.572.572,0,0,1,.572.572v90.571h22.716V839.951a.572.572,0,0,1,.571-.572h17.74V829.13H331.231V953.308h5.528V862.737a.572.572,0,0,1,.572-.572Zm-14.177,45.572h13.606v-40.59H340.363Zm103.018,66.934h9.011V954.453h-10.2v20.218Zm-1.194,1.144H396.711a.573.573,0,0,1-.571-.572V862.737a.572.572,0,0,1,.572-.572h56.249a.572.572,0,0,1,.572.572V975.243a.572.572,0,0,1-.571.572H442.187Zm-33.557-1.144h32.415v-54.4H408.629Zm-8.886,0h7.742v-54.4h-7.742Zm42.443-21.36,10.2,0V920.275h-10.2Zm0-34.181,10.2,0V867.147h-10.2Zm-33.557,0h32.414V908.88H408.629Zm-8.886,0h7.742V908.88h-7.742Zm8.886-11.4h32.414V868.13l-.01-.983-.783,0H408.629Zm-8.886,0h7.742V868.208l0-1.058-7.739,0Z" transform="translate(-250.171 -394.822)" fill="#141457"/>
    <path id="Tracé_53" data-name="Tracé 53" d="M952.6,940.974v53.476H942.572V1032.5h2.057v20.578H744.445V1032.5H746.5v-59l-11.724,8.838a1.111,1.111,0,0,1-1.551-.218l-2.663-3.535a1.109,1.109,0,0,1,.218-1.55l73.652-55.5,25.789,19.432h19.111v-6.423h1.752V922.027h-1.752v-5.1h1.752v-5.1h11.283v5.1h1.752v5.1h-1.752v12.524h1.752v6.423Z" transform="translate(-376.138 -419.911)" fill="#fff"/>
    <g id="Groupe_455" data-name="Groupe 455" transform="translate(459.777 521.062)">
      <path id="Tracé_54" data-name="Tracé 54" d="M899.388,971.183v-6.877h2.733v6.877a1.369,1.369,0,0,1-.931,1.3Z" transform="translate(-886.497 -956.675)" fill="#bad1f8"/>
      <path id="Tracé_55" data-name="Tracé 55" d="M880.993,958.21v-4.794h2.733v4.794a1.366,1.366,0,0,1-.891,1.281Z" transform="translate(-880.993 -953.416)" fill="#bad1f8"/>
      <path id="Tracé_56" data-name="Tracé 56" d="M1030.885,953.416v41.556a1.367,1.367,0,1,1-2.733,0V953.416" transform="translate(-925.026 -953.416)" fill="#bad1f8"/>
      <path id="Tracé_57" data-name="Tracé 57" d="M1012.49,953.416v41.556a1.366,1.366,0,1,1-2.733,0V953.416" transform="translate(-919.522 -953.416)" fill="#bad1f8"/>
      <path id="Tracé_58" data-name="Tracé 58" d="M994.1,953.416v41.556a1.367,1.367,0,1,1-2.733,0V953.416" transform="translate(-914.018 -953.416)" fill="#bad1f8"/>
      <path id="Tracé_59" data-name="Tracé 59" d="M975.7,953.416v41.556a1.367,1.367,0,1,1-2.733,0V953.416" transform="translate(-908.514 -953.416)" fill="#bad1f8"/>
      <path id="Tracé_60" data-name="Tracé 60" d="M957.306,953.416v41.556a1.367,1.367,0,1,1-2.733,0V953.416" transform="translate(-903.01 -953.416)" fill="#bad1f8"/>
      <path id="Tracé_61" data-name="Tracé 61" d="M936.178,987.352V953.416h2.733v33.936a1.368,1.368,0,0,1-1,1.318Z" transform="translate(-897.506 -953.416)" fill="#bad1f8"/>
      <path id="Tracé_62" data-name="Tracé 62" d="M917.783,980.9h0v-16.59h2.733V980.9h0a1.367,1.367,0,0,1-.981,1.311Z" transform="translate(-892.001 -956.675)" fill="#bad1f8"/>
    </g>
    <path id="Tracé_283" data-name="Tracé 283" d="M833.573,960.793a9.915,9.915,0,1,1-9.915,9.915h0A9.915,9.915,0,0,1,833.573,960.793Z" transform="translate(-404.06 -434.561)" fill="#5f95f4"/>
    <path id="Tracé_286" data-name="Tracé 286" d="M864.74,1060.788h7.391v-26.719a26.941,26.941,0,0,1,7.615-3.886v23h4.167v-23.9a25.339,25.339,0,0,1,11.181,1.322v-19.315c-11.536-6.826-21.518-6.332-30.355,0v49.493Z" transform="translate(-416.353 -448.195)" fill="#7faaf6"/>
    <g id="Groupe_553" data-name="Groupe 553" transform="translate(370.36 509.942)">
      <path id="Tracé_284" data-name="Tracé 284" d="M972.6,1013.491v6.838H918.568l4.667,10.821-3.994,5.3h-6.016v35.67H894.45v-20.576h-2.057V998.077l-19.131-14.417-26.189,19.734v32.557L830.7,997.062l3.762,4.994,12.607-9.507,22.661-17.076,22.662,17.006,12.224,9.288,3.786-5.008,4.352,10.092h69.872v6.639Z" transform="translate(-776.528 -948.896)" fill="#7faaf6"/>
      <rect id="Rectangle_103" data-name="Rectangle 103" width="14.346" height="5.988" transform="translate(29.313 111.975)" fill="#7faaf6"/>
      <path id="Tracé_285" data-name="Tracé 285" d="M870.677,1104.6h-8.87v-20.577l8.873,20.576Z" transform="translate(-785.836 -981.378)" fill="#7faaf6"/>
      <path id="Tracé_287" data-name="Tracé 287" d="M753.4,981.2l57.93-43.654,30.075,22.663-3.727,2.809-22.89-17.241-6.487,4.889a10.914,10.914,0,0,0-6.2,4.676l-48.7,36.7V981.2Z" transform="translate(-753.397 -937.548)" fill="#7faaf6"/>
    </g>
    <path id="Tracé_97" data-name="Tracé 97" d="M814.436,1057.028H783.51v-36.85h30.926v36.85Z" transform="translate(-392.047 -452.33)" fill="#bfd5fa"/>
    <path id="Tracé_65" data-name="Tracé 65" d="M881.21,1039.437q2.189-.595,4.47-1.04v24.379h-4.47Z" transform="translate(-421.281 -457.782)" fill="#bfd5fa"/>
    <path id="Tracé_13" data-name="Tracé 13" d="M1192.14,998.286a28.742,28.742,0,1,1-28.742,28.742A28.742,28.742,0,0,1,1192.14,998.286Z" transform="translate(-505.718 -445.78)" fill="#7faaf6"/>
    <path id="Tracé_14" data-name="Tracé 14" d="M1190.623,1002.581a22.011,22.011,0,1,1-22.011,22.011,22.011,22.011,0,0,1,22.011-22.011Z" transform="translate(-507.278 -447.065)" fill="#dfeafd"/>
    <path id="Tracé_288" data-name="Tracé 288" d="M1191.9,1079.277a.573.573,0,0,1-.573-.572v-22.6l-.758-.035a29.3,29.3,0,1,1,2.661,0l-.758.035v22.6A.573.573,0,0,1,1191.9,1079.277Zm.022-80.66q-.711,0-1.429.035a28.17,28.17,0,0,0,0,56.27l.834.042v-8.027L1180.7,1036.3a.571.571,0,1,1,.808-.808l9.824,9.824v-18.535a.572.572,0,1,1,1.144,0v9.483l5.121-5.12a.571.571,0,1,1,.807.809l-5.928,5.927v17.079l.835-.042a28.17,28.17,0,0,0-1.384-56.3Z" transform="translate(-505.478 -445.536)" fill="#141457"/>
    <path id="Tracé_20" data-name="Tracé 20" d="M1336.189,801.858v-8.306H1346.3V845.97h2.414v6.973H1346.3v98.984h2.414V958.9H1346.3v58.784h-118.19V958.9h-2.414v-6.976h2.413V852.946h-2.413V845.97h2.413V793.552h10.1v8.3Z" transform="translate(-524.358 -384.519)" fill="#fff"/>
    <path id="Tracé_21" data-name="Tracé 21" d="M1257.065,1052.436H1304.2v37.693h-47.135Z" transform="translate(-533.745 -461.983)" fill="#bfd5fa"/>
    <path id="Tracé_22" data-name="Tracé 22" d="M1257.618,1094.695h14.344l32.4-18.719v-8.283Z" transform="translate(-533.911 -466.548)" fill="#f2f7ff"/>
    <path id="Tracé_23" data-name="Tracé 23" d="M1335.3,848.332a1.368,1.368,0,0,1-2.733,0V806.42a1.368,1.368,0,0,1,2.733,0v41.912Zm-73.484,0a1.368,1.368,0,0,1-2.733,0V806.42a1.368,1.368,0,0,1,2.733,0h0v41.912Zm12.248-8.863c0,.717-.612.957-1.366.957s-1.367.477-1.367-.24V806.42a1.368,1.368,0,0,1,2.733,0h0Zm12.248-5.736a1.317,1.317,0,0,1-1.367,1.278c-.755,0-1.366-.077-1.366-.794v-27.8a1.368,1.368,0,0,1,2.733,0Zm9.514-4.45V806.42a1.368,1.368,0,0,1,2.733,0v22.864Zm14.98,4.934c0,.717-.612.77-1.366.77a1.334,1.334,0,0,1-1.366-1.3V806.42a1.368,1.368,0,0,1,2.733,0Zm12.248,5.97c0,.717-.612.262-1.366.262s-1.367-.262-1.367-.979V806.42a1.368,1.368,0,0,1,2.733,0Z" transform="translate(-534.349 -387.98)" fill="#bad1f8"/>
    <path id="Tracé_24" data-name="Tracé 24" d="M1229.137,884.905h118.188v4.32H1229.137Z" transform="translate(-525.389 -411.854)" fill="#7faaf6"/>
    <path id="Tracé_25" data-name="Tracé 25" d="M1229.137,1029.506h118.188v4.321H1229.137Z" transform="translate(-525.389 -455.121)" fill="#7faaf6"/>
    <path id="Tracé_26" data-name="Tracé 26" d="M1306.422,899.674h12.544v25.578h-12.544Z" transform="translate(-548.514 -416.273)" fill="#bfd5fa"/>
    <path id="Tracé_27" data-name="Tracé 27" d="M1257.065,899.674h12.756v25.578h-12.756Z" transform="translate(-533.745 -416.273)" fill="#bfd5fa"/>
    <path id="Tracé_28" data-name="Tracé 28" d="M1355.143,975.109h12.777v25.428h-12.777Z" transform="translate(-563.092 -438.845)" fill="#bfd5fa"/>
    <path id="Tracé_29" data-name="Tracé 29" d="M1305.786,975.109h12.99v25.428h-12.99Z" transform="translate(-548.324 -438.845)" fill="#bfd5fa"/>
    <path id="Tracé_30" data-name="Tracé 30" d="M1257.065,975.109h12.756v25.428h-12.756Z" transform="translate(-533.745 -438.845)" fill="#bfd5fa"/>
    <path id="Tracé_31" data-name="Tracé 31" d="M1355.27,1050.671h12.688v38.93H1355.27Z" transform="translate(-563.13 -461.455)" fill="#bfd5fa"/>
    <path id="Tracé_32" data-name="Tracé 32" d="M1355.143,899.674h12.777v25.578h-12.777Z" transform="translate(-563.092 -416.273)" fill="#bfd5fa"/>
    <path id="Tracé_66" data-name="Tracé 66" d="M166.746,1114.153a1.411,1.411,0,1,1,0-2.733h973.1a1.411,1.411,0,1,1,0,2.733Z" transform="translate(-206.969 -479.618)" fill="#141457"/>
    <path id="Tracé_289" data-name="Tracé 289" d="M804.606,920.9l25.558,19.261h18.349v-5.851a.572.572,0,0,1,.571-.572h1.182V922.354h-1.18a.571.571,0,0,1-.4-.167.565.565,0,0,1-.167-.4v-5.1a.573.573,0,0,1,.572-.573h1.18v-4.526a.572.572,0,0,1,.572-.571H862.12a.572.572,0,0,1,.571.571v4.526h1.181a.573.573,0,0,1,.572.573v5.1a.573.573,0,0,1-.572.57h-1.181v11.381h1.181a.572.572,0,0,1,.572.571v5.852h87.919a.572.572,0,0,1,.571.571v53.479a.572.572,0,0,1-.571.572h-9.455v36.908h1.486a.572.572,0,0,1,.573.572v20.577a.572.572,0,0,1-1.144,0v-20H930.3v20a.572.572,0,0,1-1.144,0V1037.4H875.306v15.432a.572.572,0,0,1-1.144,0v-20h-9.408v20a.572.572,0,0,1-1.144,0v-20h-6.34v20a.572.572,0,0,1-1.144,0v-4.451H822.8v4.451a.572.572,0,0,1-1.144,0v-20h-6.34v20a.572.572,0,0,1-1.144,0v-20h-69.4v19.21l0,.795a.572.572,0,0,1-1.144,0v-20.577a.573.573,0,0,1,.573-.572h1.486V974.411l-10.81,8.146a1.684,1.684,0,0,1-2.35-.33l-2.661-3.533a1.683,1.683,0,0,1,.33-2.349l73.651-55.5a.569.569,0,0,1,.7.006ZM822.8,1047.241h33.326v-4.123H822.8Zm0-5.265h32.535l.355-1.505.437.709v-3.2H822.8Zm0-5.145h33.326v-4H822.8Zm52.5-.571h53.849V1021.4H875.3Zm-44.7-4.573h17.723V988.136H830.6Zm8.861-54.411a23.217,23.217,0,0,1,15.5,5.927.6.6,0,0,1,.245.47v48.013h6.341V973.546L839.461,956.9l-22.089,16.647v58.141h6.339V983.675a.561.561,0,0,1,.212-.443A23.245,23.245,0,0,1,839.461,977.277Zm9.434,9.716a.572.572,0,0,1,.571.571v44.122h4.6V983.924l-.279-.238a22.069,22.069,0,0,0-28.655,0l-.279.238v47.762h4.6V987.564a.572.572,0,0,1,.571-.571ZM746.832,973.546v58.141h69.4V975.206h-1.061l-9.752,7.348a1.681,1.681,0,0,1-2.349-.33l-2.661-3.533a1.685,1.685,0,0,1,.329-2.35l32.261-24.309L804.19,930.323Zm182.889,30.7a.572.572,0,0,1,.571.571v26.864h11.468V994.775H862.692v36.908h11.465V1004.82a.572.572,0,0,1,.572-.571Zm-54.42,16.009h53.849V1005.4H875.3Zm-12.608-26.625h89.093v-5.5H862.692Zm-22.777-46.12,38.267,28.835a1.679,1.679,0,0,1,.329,2.344l-2.662,3.534a1.682,1.682,0,0,1-2.35.328l-10.806-8.146v12.585h89.091V941.3H864.449v7.06a.572.572,0,0,1-.572.572H849.091a.573.573,0,0,1-.573-.572V941.3H831.706l1.869,1.434,6.217,4.685Zm22.738,25.444,11.963,9.016,3.311-4.394-38.469-28.988-38.469,28.985,3.314,4.393L839.1,955.75a.576.576,0,0,1,.364-.131.562.562,0,0,1,.343.115l21.676,16.332Zm-132.2,4.62,3.31,4.392,70.066-52.8a.58.58,0,0,1,.365-.132.564.564,0,0,1,.344.116l29.41,22.162,4.57-3.444-34.328-25.868ZM849.662,947.79H863.3V934.878H849.662Zm1.752-14.055h10.138V922.353H851.413Zm-1.752-12.523H863.3v-3.954H849.662Zm1.752-5.1h10.138V912.16H851.413Zm-78.644,132.271a.572.572,0,0,1-.572-.572V1037.4a.574.574,0,0,1,.572-.573h17.524a.572.572,0,0,1,.572.572v10.409a.574.574,0,0,1-.572.572Zm3.03-1.143h13.922v-5.428H775.8Zm59.66-22.015a.572.572,0,0,1-.571-.571V994.2a.573.573,0,0,1,.572-.573h8a.573.573,0,0,1,.572.573v30.452a.573.573,0,0,1-.573.571h-8Zm3.593-24.33a25.09,25.09,0,0,0-2.54.954l-.475.209v22.023h4.049v-23.513Zm-74.279,24.33a.573.573,0,0,1-.573-.572V983.676a.573.573,0,0,1,.573-.572h33.51a.572.572,0,0,1,.571.572v40.981a.572.572,0,0,1-.572.571H764.774Zm26.089-1.143h6.849v-36h-6.849Zm-17.523,0h16.38l0-.794v-35.2H773.339Zm-5.535,0H772.2v-36H767.8Zm36.33-60.43a10.488,10.488,0,0,1,0-20.976,10.53,10.53,0,0,1,7.414,3.071,10.488,10.488,0,0,1-7.416,17.906Zm2-16.53a10.72,10.72,0,0,0-10.615,9.387l-.027.214.084.2a9.346,9.346,0,1,0,17.164-7.4l-.086-.2-.174-.128a10.745,10.745,0,0,0-6.347-2.074Z" transform="translate(-375.895 -419.667)" fill="#141457"/>
    <path id="Tracé_33" data-name="Tracé 33" d="M1259.748,1052.688a3.1,3.1,0,0,1-6.2.1c0-.03,0-.06,0-.09v-8.041h6.2Z" transform="translate(-532.693 -459.654)" fill="#fff"/>
    <path id="Tracé_34" data-name="Tracé 34" d="M1268.595,1052.688a3.1,3.1,0,0,1-6.2.007v-8.041h6.2Z" transform="translate(-535.34 -459.654)" fill="#7faaf6"/>
    <path id="Tracé_35" data-name="Tracé 35" d="M1277.441,1052.688a3.1,3.1,0,1,1-6.2.1c0-.03,0-.06,0-.09v-8.041h6.2Z" transform="translate(-537.987 -459.654)" fill="#fff"/>
    <path id="Tracé_36" data-name="Tracé 36" d="M1286.289,1052.688a3.1,3.1,0,0,1-6.2.1c0-.03,0-.06,0-.09v-8.041h6.2Z" transform="translate(-540.634 -459.654)" fill="#7faaf6"/>
    <path id="Tracé_37" data-name="Tracé 37" d="M1295.137,1052.688a3.1,3.1,0,0,1-6.2.007v-8.041h6.2Z" transform="translate(-543.282 -459.654)" fill="#fff"/>
    <path id="Tracé_38" data-name="Tracé 38" d="M1303.984,1052.688a3.1,3.1,0,0,1-6.2.007v-8.041h6.2Z" transform="translate(-545.929 -459.654)" fill="#7faaf6"/>
    <path id="Tracé_39" data-name="Tracé 39" d="M1312.831,1052.688a3.1,3.1,0,0,1-6.2.1c0-.03,0-.06,0-.09v-8.041h6.2Z" transform="translate(-548.576 -459.654)" fill="#fff"/>
    <path id="Tracé_40" data-name="Tracé 40" d="M1321.677,1052.688a3.1,3.1,0,0,1-6.2.1c0-.03,0-.06,0-.09v-8.041h6.2Z" transform="translate(-551.224 -459.654)" fill="#7faaf6"/>
    <path id="Tracé_290" data-name="Tracé 290" d="M1346.049,1018.016a.573.573,0,0,1-.572-.572V959.231H1228.433v58.213a.572.572,0,0,1-1.144,0V959.231h-1.842a.572.572,0,0,1-.572-.571v-6.973a.573.573,0,0,1,.572-.573h1.842v-97.84h-1.842a.572.572,0,0,1-.572-.572v-6.973a.573.573,0,0,1,.572-.573l1.845,0V793.31a.573.573,0,0,1,.572-.572h10.1a.573.573,0,0,1,.572.571v7.732h96.833V793.31a.573.573,0,0,1,.572-.572h10.1a.573.573,0,0,1,.572.572v51.847h1.842a.573.573,0,0,1,.571.573V852.7a.572.572,0,0,1-.572.572h-1.841v97.841h1.842a.573.573,0,0,1,.571.572v6.973a.572.572,0,0,1-.571.572h-1.842v58.212A.572.572,0,0,1,1346.049,1018.016ZM1226.02,958.089h121.87v-5.83H1226.02Zm2.413-100.189v93.215h117.043V857.9h-.794Zm0-1.144h117.043v-3.481H1228.433Zm-2.413-4.626h121.87V846.3H1226.02Zm2.417-6.974h8.961V838h-8.961Zm10.1,0h21.082v-7.732a.576.576,0,0,1,.369-.535l26.733-12.067a.569.569,0,0,1,.468,0l.156.07h.007l26.6,12.01a.571.571,0,0,1,.336.519v7.732h21.082V802.186H1238.54Zm97.978,0h8.961v-7.161h-8.961Zm-75.753-7.365v7.365h52.384V837.79l-26.192-11.826Zm-32.328-.936h8.961V793.881h-8.961Zm108.081,0h8.961V793.881h-8.961Zm-7.576,181.165a.572.572,0,0,1-.572-.572v-4.451h-14.079v4.451a.572.572,0,0,1-1.144,0V969.274a.572.572,0,0,1,.572-.571h15.223a.572.572,0,0,1,.572.571v48.169A.572.572,0,0,1,1328.942,1018.016Zm-12.009-6.169,11.438,0v-10.01h-11.438Zm0-11.151h11.438V973.934h-11.438Zm-22.366,17.32a.573.573,0,0,1-.572-.572v-4.453H1245.54v4.451a.572.572,0,1,1-1.144,0V969.274a.572.572,0,0,1,.571-.571h49.6a.574.574,0,0,1,.571.572v48.169a.57.57,0,0,1-.571.572Zm-38.3-6.169,26.991,0v-10.011h-26.991Zm28.135-10.006v10.006H1294v-10.008Zm-36.227,10.006h6.948v-10.008h-6.948Zm7.523-32.126a.573.573,0,0,1,.572.573v20.4h26.988V980.3a.572.572,0,1,1,1.144,0v20.4H1294V969.847h-48.455v9.372l2.642,1.4V1000.7h6.947v-20.4A.573.573,0,0,1,1255.7,979.72Zm-10.734-33.178a.572.572,0,0,1-.571-.572V917.135h-1.188a.573.573,0,0,1-.564-.487l-.931-6.343a.754.754,0,0,1-.018-.151.572.572,0,0,1,.571-.571h6.957v-1.6a.572.572,0,0,1,.572-.572h5.569a.572.572,0,0,1,.572.572v1.6h6.957a.573.573,0,0,1,.572.571.585.585,0,0,1-.012.116l-.937,6.378a.573.573,0,0,1-.564.488h-1.188V945.97a.573.573,0,0,1-.572.572Zm3.215-1.144h11.438v-9.772h-11.438Zm0-10.917h11.437v-13.26h-11.437Zm-4.482-18.489h17.758l.773-5.268h-6.868a.573.573,0,0,1-.571-.573v-1.6h-4.426v1.6a.573.573,0,0,1-.572.573h-6.868Zm35.643,30.549a.572.572,0,0,1-.571-.572V917.133h-1.189a.572.572,0,0,1-.564-.487l-.931-6.344a.766.766,0,0,1-.018-.151.572.572,0,0,1,.571-.57h6.957v-1.6a.573.573,0,0,1,.573-.572h5.906a.572.572,0,0,1,.572.572v1.6h6.62a.571.571,0,0,1,.571.57.627.627,0,0,1-.011.12l-.938,6.374a.572.572,0,0,1-.563.488h-1.189v28.835a.572.572,0,0,1-.572.572h-15.223Zm3.214-1.144H1294v-9.772h-11.439Zm0-10.917H1294v-13.26h-11.439Zm-4.479-18.489h17.758l.773-5.268h-6.531a.573.573,0,0,1-.572-.573v-1.6h-4.763v1.6a.572.572,0,0,1-.57.573h-6.87Zm35.644,30.549a.573.573,0,0,1-.573-.572V917.133h-1.188a.573.573,0,0,1-.564-.487l-.931-6.344a.765.765,0,0,1-.017-.144.574.574,0,0,1,.572-.578h6.955v-1.6a.573.573,0,0,1,.573-.572h5.569a.572.572,0,0,1,.571.572v1.6h6.957a.572.572,0,0,1,.57.571.514.514,0,0,1-.01.114l-.937,6.381a.574.574,0,0,1-.565.488h-1.187v28.835a.573.573,0,0,1-.573.572Zm3.213-1.143h11.437v-9.772h-11.437Zm0-10.917h11.437v-13.26h-11.437Zm-4.482-18.49h17.759l.774-5.268h-6.868a.573.573,0,0,1-.573-.573v-1.6h-4.425v1.6a.572.572,0,0,1-.571.573h-6.87Zm-67.485-22.165a.572.572,0,0,1-.57-.571V863.847a.572.572,0,0,1,.57-.571h15.224a.573.573,0,0,1,.572.571v29.4a.573.573,0,0,1-.572.571l-.795,0Zm3.215-1.143h11.437V882.91h-11.437Zm0-10.917h11.437V868.507h-11.437Zm31.16,12.059a.572.572,0,0,1-.571-.571V863.847a.572.572,0,0,1,.571-.571h15.224a.572.572,0,0,1,.571.571v29.4a.572.572,0,0,1-.571.571h-15.224Zm3.214-1.143H1294v-9.772h-11.439Zm0-10.932,1.125.015H1294V868.507h-11.439Zm31.164,12.074a.573.573,0,0,1-.573-.571V863.847a.573.573,0,0,1,.573-.571h15.223a.572.572,0,0,1,.572.571v29.4a.572.572,0,0,1-.572.571h-15.223Zm3.214-1.143h11.438V882.91h-11.438Zm0-10.917h11.438V868.507h-11.438Z" transform="translate(-524.114 -384.275)" fill="#141457"/>
    <g id="Groupe_512" data-name="Groupe 512" transform="translate(720.854 585)">
      <path id="Tracé_33-2" data-name="Tracé 33" d="M1259.748,1052.688a3.1,3.1,0,0,1-6.2.1c0-.03,0-.06,0-.09v-8.041h6.2Z" transform="translate(-1253.547 -1044.654)" fill="none" stroke="#141457" stroke-width="1.5"/>
      <path id="Tracé_34-2" data-name="Tracé 34" d="M1268.595,1052.688a3.1,3.1,0,0,1-6.2.007v-8.041h6.2Z" transform="translate(-1256.195 -1044.654)" fill="none" stroke="#141457" stroke-width="1.5"/>
      <path id="Tracé_35-2" data-name="Tracé 35" d="M1277.441,1052.688a3.1,3.1,0,1,1-6.2.1c0-.03,0-.06,0-.09v-8.041h6.2Z" transform="translate(-1258.842 -1044.654)" fill="none" stroke="#141457" stroke-width="1.5"/>
      <path id="Tracé_36-2" data-name="Tracé 36" d="M1286.289,1052.688a3.1,3.1,0,0,1-6.2.1c0-.03,0-.06,0-.09v-8.041h6.2Z" transform="translate(-1261.489 -1044.654)" fill="none" stroke="#141457" stroke-width="1.5"/>
      <path id="Tracé_37-2" data-name="Tracé 37" d="M1295.137,1052.688a3.1,3.1,0,0,1-6.2.007v-8.041h6.2Z" transform="translate(-1264.137 -1044.654)" fill="none" stroke="#141457" stroke-width="1.5"/>
      <path id="Tracé_38-2" data-name="Tracé 38" d="M1303.984,1052.688a3.1,3.1,0,0,1-6.2.007v-8.041h6.2Z" transform="translate(-1266.784 -1044.654)" fill="none" stroke="#141457" stroke-width="1.5"/>
      <path id="Tracé_39-2" data-name="Tracé 39" d="M1312.831,1052.688a3.1,3.1,0,0,1-6.2.1c0-.03,0-.06,0-.09v-8.041h6.2Z" transform="translate(-1269.431 -1044.654)" fill="none" stroke="#141457" stroke-width="1.5"/>
      <path id="Tracé_40-2" data-name="Tracé 40" d="M1321.677,1052.688a3.1,3.1,0,0,1-6.2.1c0-.03,0-.06,0-.09v-8.041h6.2Z" transform="translate(-1272.078 -1044.654)" fill="none" stroke="#141457" stroke-width="1.5"/>
    </g>
  </g>
</svg>
