<svg xmlns="http://www.w3.org/2000/svg" width="1048.274" height="284.072" viewBox="0 0 1048.274 284.072">
  <g id="Groupe_1333" data-name="Groupe 1333" transform="translate(-478.726 -9061.928)">
    <g id="Groupe_1331" data-name="Groupe 1331" transform="translate(328 5254)" opacity="0.4">
      <path id="Tracé_43" data-name="Tracé 43" d="M419.929,843.213H514.01V1079.3H336.391v-58.628h-14.2v58.359h-5.917v-58.36h-6.094V987.3h26.214V828.8h83.538v14.409Z" transform="translate(-159.452 3010.696)" fill="#bfd5fa"/>
      <path id="Tracé_20" data-name="Tracé 20" d="M1364.777,804.007V793.552H1377.5v65.98h3.038v8.778H1377.5V992.9h3.038v8.777H1377.5v73.993H1228.732v-73.989h-3.039V992.9h3.037V868.312h-3.037v-8.78h3.037v-65.98h12.718V804Z" transform="translate(-181.537 3015.352)" fill="#bfd5fa"/>
      <path id="Tracé_18" data-name="Tracé 18" d="M637.131,1002.582a35.651,35.651,0,1,1-35.651,35.651h0A35.65,35.65,0,0,1,637.131,1002.582Z" transform="translate(305.512 2987.605)" fill="#bfd5fa"/>
      <path id="Tracé_18-2" data-name="Tracé 18" d="M637.131,1002.582a35.651,35.651,0,1,1-35.651,35.651h0A35.65,35.65,0,0,1,637.131,1002.582Z" transform="translate(-190.488 2987.605)" fill="#bfd5fa"/>
    </g>
    <g id="Groupe_1332" data-name="Groupe 1332" transform="translate(-9793.855 5277.928)">
      <path id="Tracé_279" data-name="Tracé 279" d="M1100.547,1110.907a.722.722,0,0,1-.721-.721v-10.38h-34.631v10.38a.721.721,0,0,1-1.442,0v-10.38h-4.714v-1.442h4.714v-4.818h-4.714V1092.1h4.714v-4.813h-4.714v-1.442h46.942v1.442h-4.713v4.818h4.713v1.442h-4.713v4.818h4.713v1.442h-4.713v10.379A.722.722,0,0,1,1100.547,1110.907Zm-35.352-12.541h34.633v-4.818h-34.633Zm0-6.259h34.633v-4.818h-34.633Z" transform="translate(9910.578 2957.161)" fill="#bad1f8"/>
      <path id="Tracé_280" data-name="Tracé 280" d="M705.24,1110.907a.722.722,0,0,1-.721-.721v-10.38H669.888v10.38a.721.721,0,0,1-1.442,0v-10.38h-4.713v-1.442h4.713v-4.818h-4.713V1092.1h4.713v-4.813h-4.713v-1.442h46.942v1.442H705.96v4.818h4.713v1.442H705.96v4.818h4.713v1.442H705.96v10.379A.722.722,0,0,1,705.24,1110.907Zm-35.353-12.541h34.633v-4.818H669.888Zm0-6.259h34.633v-4.818H669.888Z" transform="translate(9932.747 2957.161)" fill="#bad1f8"/>
      <path id="Tracé_281" data-name="Tracé 281" d="M632.414,1100.63a.722.722,0,0,1-.721-.721v-28.5l-.957-.044a36.96,36.96,0,0,1,1.65-73.883q.85,0,1.706.039a36.96,36.96,0,0,1,0,73.844l-.957.044v28.5A.722.722,0,0,1,632.414,1100.63Zm.029-101.714q-.9,0-1.8.044a35.521,35.521,0,0,0,0,70.954l1.052.053v-10.121l-13.407-13.408a.72.72,0,0,1,0-1.019.718.718,0,0,1,1.018,0l12.388,12.387v-23.372a.721.721,0,1,1,1.442,0V1046.4l6.5-6.5a.72.72,0,0,1,.974.04.722.722,0,0,1,0,1.02l-7.476,7.475v21.536l1.052-.053a35.521,35.521,0,0,0-1.744-71Z" transform="translate(9935.904 2967.442)" fill="#bad1f8"/>
      <path id="Tracé_50" data-name="Tracé 50" d="M400.028,1063.322a1.723,1.723,0,0,1,0-3.446h4.683a1.723,1.723,0,0,1,1.723,1.723h0a1.708,1.708,0,0,1-.079.512l-3.332,13.3a1.721,1.721,0,0,1-3.357-.756c.006-.026.012-.051.019-.077l2.821-11.252Zm-17.673,0a1.723,1.723,0,1,1,0-3.446h3.255a1.723,1.723,0,0,1,1.723,1.723h0v13.391a1.723,1.723,0,0,1-3.446.006v-11.671Zm9.883-3.446H394.7a2.811,2.811,0,0,1,1.993.831h0a2.822,2.822,0,0,1,.83,2v11.177a2.833,2.833,0,0,1-2.828,2.828h-2.465a2.821,2.821,0,0,1-2-.831,1.5,1.5,0,0,1-.133-.147,2.808,2.808,0,0,1-.7-1.856v-11.171a2.818,2.818,0,0,1,.83-1.994h0a2.817,2.817,0,0,1,2-.831Zm1.849,3.446H392.85v9.946h1.237Z" transform="translate(9954.93 2960.183)" fill="#bad1f8"/>
      <path id="Tracé_282" data-name="Tracé 282" d="M513.309,1079.191a.724.724,0,0,1-.723-.721V843.8H397.137V986.735a.722.722,0,0,1-.721.721H310.8v31.832H490.438a.722.722,0,0,1,.721.721v58.454a.721.721,0,0,1-1.442,0V1064.57H420.229v13.893a.721.721,0,1,1-1.442,0V1020.73H367.051v57.733a.721.721,0,1,1-1.442,0v-5.615H348.454v6.332h-1.1v-.721h-2a.721.721,0,1,1-1.442,0V1020.73h-6.971v57.733a.721.721,0,1,1-1.442,0V1020.73H322.778v57.733a.721.721,0,1,1-1.442,0V1020.73h-4.457v57.733a.721.721,0,1,1-1.442,0V1020.73h-5.355a.723.723,0,0,1-.722-.722V986.735a.723.723,0,0,1,.722-.722H335.5v-157.3a.723.723,0,0,1,.721-.722h83.289a.723.723,0,0,1,.722.722v13.647h93.079a.722.722,0,0,1,.721.722v235.387A.723.723,0,0,1,513.309,1079.191Zm-164.855-7.781,17.156,0v-36.069H348.454Zm71.775-8.283,69.489,0v-13.174H420.229Zm0-14.614,69.489,0v-13.175H420.229Zm0-14.613,69.489,0v-13.174H420.229Zm-71.775,0H365.61v-4.725H348.454Zm0-47.888H365.61V929.991H348.454Zm17.877-114.93a.722.722,0,0,1,.721.721V986.013H395.7V843.074a.721.721,0,0,1,.72-.721h22.37V829.428H336.939V986.013h6.971V871.806a.722.722,0,0,1,.721-.721Zm-17.877,57.464H365.61V877.367H348.454Zm129.9,84.4h11.362V987.456H476.85v25.494Zm-1.506,1.443H419.507a.722.722,0,0,1-.72-.721V871.806a.722.722,0,0,1,.721-.721h70.929a.722.722,0,0,1,.721.721v141.867a.722.722,0,0,1-.72.721H476.85Zm-42.315-1.443H475.41V944.36H434.536Zm-11.2,0h9.763V944.36h-9.763Zm53.52-26.934,12.868-.005V944.36H476.85Zm0-43.1,12.868,0V877.367H476.85Zm-42.315,0h40.874V929.991H434.536Zm-11.2,0h9.763V929.991h-9.763Zm11.2-14.37h40.874V878.606l-.012-1.239-.988,0H434.536Zm-11.2,0h9.763V878.7l0-1.334-9.758,0Z" transform="translate(9963.222 2987.161)" fill="#bad1f8"/>
      <path id="Tracé_288" data-name="Tracé 288" d="M1199.547,1100.625a.723.723,0,0,1-.722-.721v-28.5l-.956-.044a36.95,36.95,0,1,1,3.355,0l-.956.044v28.5A.722.722,0,0,1,1199.547,1100.625Zm.028-101.71q-.9,0-1.8.044a35.522,35.522,0,0,0,0,70.954l1.052.053v-10.122l-13.407-13.407a.72.72,0,1,1,1.019-1.019l12.388,12.388v-23.372a.722.722,0,1,1,1.443,0v11.958l6.457-6.456a.72.72,0,1,1,1.018,1.02l-7.475,7.474v21.536l1.052-.053a35.521,35.521,0,0,0-1.745-71Z" transform="translate(9865.049 2967.443)" fill="#bad1f8"/>
      <path id="Tracé_290" data-name="Tracé 290" d="M1377.672,1076.806a.723.723,0,0,1-.722-.721v-73.4H1229.361v73.4a.721.721,0,0,1-1.442,0v-73.4H1225.6a.722.722,0,0,1-.721-.72v-8.792a.723.723,0,0,1,.721-.722h2.322V869.072H1225.6a.722.722,0,0,1-.721-.721v-8.792a.722.722,0,0,1,.721-.722l2.327,0V793.459a.723.723,0,0,1,.721-.721h12.74a.723.723,0,0,1,.721.72v9.75h122.1v-9.749a.723.723,0,0,1,.721-.721h12.741a.722.722,0,0,1,.721.721v65.377h2.322a.723.723,0,0,1,.72.722v8.792a.722.722,0,0,1-.721.721h-2.321V992.447h2.322a.722.722,0,0,1,.72.721v8.793a.722.722,0,0,1-.72.721h-2.322v73.4A.722.722,0,0,1,1377.672,1076.806Zm-151.353-75.565h153.674v-7.352H1226.319Zm3.042-126.335V992.447h147.588V874.9h-1Zm0-1.442h147.588v-4.39H1229.361Zm-3.042-5.833h153.674v-7.35H1226.319Zm3.048-8.794h11.3v-9.03h-11.3Zm12.74,0h26.583v-9.749a.726.726,0,0,1,.466-.674l33.709-15.217a.716.716,0,0,1,.59,0l.2.088h.009l33.543,15.144a.719.719,0,0,1,.424.654v9.75h26.584v-54.18l-122.1,0Zm123.547,0h11.3V849.8h-11.3Zm-95.523-9.287v9.287h66.054v-9.287l-33.027-14.912Zm-40.764-1.181h11.3V794.179h-11.3Zm136.287,0h11.3V794.179h-11.3Zm-9.553,228.444a.722.722,0,0,1-.721-.721v-5.612h-17.754v5.612a.721.721,0,1,1-1.442,0v-60.74a.722.722,0,0,1,.721-.72h19.2a.722.722,0,0,1,.721.72v60.74A.722.722,0,0,1,1356.1,1076.806Zm-15.142-7.779,14.423,0v-12.622h-14.423Zm0-14.062h14.423V1021.22h-14.423Zm-28.2,21.841a.723.723,0,0,1-.722-.721v-5.615h-61.1v5.612a.721.721,0,1,1-1.442,0v-60.737a.721.721,0,0,1,.72-.72h62.543a.723.723,0,0,1,.72.721v60.739a.718.718,0,0,1-.719.721Zm-48.29-7.779,34.035,0v-12.624h-34.035Zm35.477-12.618v12.618h12.092v-12.62Zm-45.681,12.618h8.762v-12.62h-8.762Zm9.486-40.51a.722.722,0,0,1,.721.722v25.728H1298.5v-25.723a.721.721,0,1,1,1.442,0v25.723h12.092v-38.9h-61.1v11.818l3.332,1.767v25.313h8.76v-25.727A.723.723,0,0,1,1263.747,1028.517Zm-13.536-41.837a.722.722,0,0,1-.72-.721V949.6h-1.5a.722.722,0,0,1-.711-.614l-1.174-8a.958.958,0,0,1-.022-.191.721.721,0,0,1,.72-.719h8.772v-2.017a.722.722,0,0,1,.721-.721h7.022a.722.722,0,0,1,.721.721v2.017h8.772a.722.722,0,0,1,.721.719.731.731,0,0,1-.015.146l-1.182,8.043a.723.723,0,0,1-.711.615h-1.5v36.36a.722.722,0,0,1-.721.721Zm4.054-1.443h14.423V972.914h-14.423Zm0-13.766h14.422V954.751h-14.422Zm-5.651-23.314h22.393l.975-6.643h-8.661a.722.722,0,0,1-.72-.722v-2.016h-5.581v2.016a.723.723,0,0,1-.721.722h-8.661Zm44.945,38.521a.722.722,0,0,1-.72-.721V949.6h-1.5a.722.722,0,0,1-.711-.614l-1.174-8a.973.973,0,0,1-.023-.19.721.721,0,0,1,.72-.719h8.772v-2.017a.723.723,0,0,1,.722-.721h7.447a.722.722,0,0,1,.721.721v2.017h8.348a.72.72,0,0,1,.72.719.8.8,0,0,1-.014.151l-1.182,8.038a.721.721,0,0,1-.71.615h-1.5v36.36a.722.722,0,0,1-.721.721h-19.2Zm4.052-1.442h14.422v-11.32l0-1h-14.424Zm0-13.766h14.424v-16.72h-14.424Zm-5.648-23.314h22.393l.975-6.643H1307.1a.722.722,0,0,1-.721-.722v-2.016h-6.006v2.016a.721.721,0,0,1-.719.722h-8.663Zm44.945,38.521a.723.723,0,0,1-.722-.721V949.6h-1.5a.723.723,0,0,1-.711-.614l-1.174-8a.971.971,0,0,1-.022-.182.724.724,0,0,1,.721-.728h8.77v-2.016a.722.722,0,0,1,.722-.721h7.022a.722.722,0,0,1,.72.721v2.016h8.773a.721.721,0,0,1,.719.72.652.652,0,0,1-.013.143l-1.182,8.046a.724.724,0,0,1-.712.615h-1.5v36.36a.723.723,0,0,1-.722.721Zm4.052-1.441h14.422V972.914H1340.96Zm0-13.766h14.422v-16.72H1340.96Zm-5.651-23.315H1357.7l.977-6.643h-8.661a.723.723,0,0,1-.722-.722v-2.016h-5.58v2.016a.722.722,0,0,1-.72.722h-8.662Zm-85.1-27.949a.721.721,0,0,1-.719-.72V882.4a.721.721,0,0,1,.719-.72h19.2a.722.722,0,0,1,.721.72v37.078a.722.722,0,0,1-.721.72l-1,0Zm4.054-1.441h14.422V906.442h-14.422Zm0-13.766h14.422V888.28h-14.422Zm39.292,15.206a.721.721,0,0,1-.72-.72V882.4a.721.721,0,0,1,.72-.72h19.2a.721.721,0,0,1,.72.72v37.078a.721.721,0,0,1-.72.72h-2.419v0Zm4.052-1.441h14.422v-11.32l0-1h-14.424Zm0-13.784,1.419.018h13V888.28h-14.424Zm39.3,15.224a.722.722,0,0,1-.722-.72V882.4a.722.722,0,0,1,.722-.72h19.2a.722.722,0,0,1,.721.72v37.078a.722.722,0,0,1-.721.72h-19.2Zm4.052-1.441h14.423V906.442l-14.423,0Zm0-13.766h14.423V888.28H1340.96Z" transform="translate(9939.42 2991.262)" fill="#bad1f8"/>
      <g id="Groupe_512" data-name="Groupe 512" transform="translate(11189.632 4006.608)">
        <path id="Tracé_33" data-name="Tracé 33" d="M1261.366,1054.785a3.909,3.909,0,1,1-7.818.123c0-.038,0-.076,0-.114v-10.14h7.818Z" transform="translate(-1253.547 -1044.654)" fill="none" stroke="#bad1f8" stroke-width="1.5"/>
        <path id="Tracé_34" data-name="Tracé 34" d="M1270.213,1054.785a3.909,3.909,0,0,1-7.818.009v-10.14h7.818Z" transform="translate(-1254.576 -1044.654)" fill="none" stroke="#bad1f8" stroke-width="1.5"/>
        <path id="Tracé_35" data-name="Tracé 35" d="M1279.06,1054.785a3.909,3.909,0,1,1-7.818.123c0-.038,0-.076,0-.114v-10.14h7.818Z" transform="translate(-1255.606 -1044.654)" fill="none" stroke="#bad1f8" stroke-width="1.5"/>
        <path id="Tracé_36" data-name="Tracé 36" d="M1287.907,1054.785a3.909,3.909,0,1,1-7.818.123c0-.038,0-.076,0-.114v-10.14h7.818Z" transform="translate(-1256.635 -1044.654)" fill="none" stroke="#bad1f8" stroke-width="1.5"/>
        <path id="Tracé_37" data-name="Tracé 37" d="M1296.755,1054.785a3.909,3.909,0,0,1-7.818.009v-10.14h7.818Z" transform="translate(-1257.665 -1044.654)" fill="none" stroke="#bad1f8" stroke-width="1.5"/>
        <path id="Tracé_38" data-name="Tracé 38" d="M1305.6,1054.785a3.909,3.909,0,0,1-7.818.009v-10.14h7.818Z" transform="translate(-1258.694 -1044.654)" fill="none" stroke="#bad1f8" stroke-width="1.5"/>
        <path id="Tracé_39" data-name="Tracé 39" d="M1314.449,1054.785a3.909,3.909,0,1,1-7.818.123c0-.038,0-.076,0-.114v-10.14h7.818Z" transform="translate(-1259.723 -1044.654)" fill="none" stroke="#bad1f8" stroke-width="1.5"/>
        <path id="Tracé_40" data-name="Tracé 40" d="M1323.3,1054.785a3.909,3.909,0,1,1-7.818.123c0-.038,0-.076,0-.114v-10.14h7.818Z" transform="translate(-1260.752 -1044.654)" fill="none" stroke="#bad1f8" stroke-width="1.5"/>
      </g>
    </g>
  </g>
</svg>
