<svg xmlns="http://www.w3.org/2000/svg" width="677.947" height="546.469" viewBox="0 0 677.947 546.469">
  <g id="Groupe_1307" data-name="Groupe 1307" transform="translate(-618.552 -2610.031)">
    <path id="Intersection_3" data-name="Intersection 3" d="M-8100.088,600c-110.739-68.814-174.1-212.43-83.857-314.953,69.726-79.215,131.048-80.652,201.693-121.872,37.682-21.984,68.964-83.483,143.8-104.033,75.016-20.6,161.916,31.2,191.917,93.3C-7617.287,212.961-7602,287.769-7550,327.929V576a24,24,0,0,1-24,24Z" transform="translate(8846 2556)" fill="#2c2c68" stroke="rgba(0,0,0,0)" stroke-width="1"/>
    <g id="Groupe_516" data-name="Groupe 516" transform="translate(-21.495 2100.64)">
      <g id="Groupe_481" data-name="Groupe 481" transform="translate(-20.973 9.703)">
        <path id="Tracé_211" data-name="Tracé 211" d="M1192.27,577.472v42.2H1141.04L1120,640.931V577.472Z" transform="translate(0 -1.566)" fill="#fff"/>
        <path id="Tracé_88" data-name="Tracé 88" d="M1192.27,570.307v42.2H1141.04L1120,633.766V570.307Z" fill="#ffa42b"/>
        <g id="_" data-name=" " transform="translate(1149.163 574.019)" style="mix-blend-mode: normal;isolation: isolate">
          <text id="_2" data-name="?" transform="translate(0 25)" fill="#fff" font-size="24" font-family="Poppins-Bold, Poppins" font-weight="700" style="mix-blend-mode: normal;isolation: isolate"><tspan x="0" y="0">?</tspan></text>
        </g>
      </g>
      <g id="Groupe_529" data-name="Groupe 529" transform="translate(9.846)">
        <path id="Tracé_211-2" data-name="Tracé 211-2" d="M739.171,614.539v54.009H804.73l26.929,27.2V614.539Z" fill="#fff"/>
        <path id="Tracé_88-2" data-name="Tracé 88-2" d="M739.171,607.374v54.009H804.73l26.929,27.2V607.374Z" fill="#ffa42b"/>
        <g id="_2-2" data-name=" 2" style="mix-blend-mode: normal;isolation: isolate">
          <text id="_3" data-name="?" transform="translate(776.55 645.124)" fill="#fff" font-size="31" font-family="Poppins-Bold, Poppins" font-weight="700" style="mix-blend-mode: normal;isolation: isolate"><tspan x="0" y="0">?</tspan></text>
        </g>
      </g>
      <path id="Tracé_147" data-name="Tracé 147" d="M1098.973,861.2h2.894v5.423h-2.894v27.632H953.7V866.622h-2.893V861.2H953.7v-65.36h-2.893v-7.352H953.7V734.9h-2.893v-7.351H953.7V663.527h10.653v8.755h78.333l6.24-8.755,6.24,8.755h33.152v-8.755h10.653v64.024h2.894V734.9h-2.894v53.584h2.894v7.352h-2.894V861.2Z" fill="#fff"/>
      <path id="Tracé_148" data-name="Tracé 148" d="M1028.986,818.032H1071.8V852.99h-42.811Z" fill="#bfd5fa"/>
      <path id="Tracé_156" data-name="Tracé 156" d="M983.737,709.455h10.75v17.9h-10.75Z" fill="#bfd5fa"/>
      <path id="Tracé_157" data-name="Tracé 157" d="M982.025,753.664h12.461V788.3H982.025Z" fill="#bfd5fa"/>
      <path id="Tracé_158" data-name="Tracé 158" d="M1033.163,753.664h12.055V788.3h-12.055Z" fill="#bfd5fa"/>
      <path id="Tracé_159" data-name="Tracé 159" d="M1055.36,753.664h12.361V788.3H1055.36Z" fill="#bfd5fa"/>
      <path id="Tracé_160" data-name="Tracé 160" d="M1028.986,876.293H1071.8v6.923h-42.811Z" fill="#bfd5fa"/>
      <path id="Tracé_161" data-name="Tracé 161" d="M1043.508,703.059a5.469,5.469,0,0,1,10.937,0v24.263h-10.937Z" fill="#bfd5fa"/>
      <path id="Tracé_291" data-name="Tracé 291" d="M979.131,819.791l.183-.26a14.881,14.881,0,0,1,11.895-6.271h0a13.988,13.988,0,0,1,3.792.518l.212.06.167.143a16.209,16.209,0,0,1,2.044,2.1l.223.275v44.208l-18.517,0Z" fill="#bfd5fa"/>
      <path id="Tracé_149" data-name="Tracé 149" d="M1030.391,847.409l41.452-23.946V832.2l-35.992,20.791h-5.46v-5.582Z" fill="#f2f7ff"/>
      <path id="Tracé_150" data-name="Tracé 150" d="M1088.373,866.431h2.893v-5.423h6.277v5.423h-2.893v27.632h-6.277Z" fill="#5f95f4"/>
      <path id="Tracé_151" data-name="Tracé 151" d="M1009.588,861.008l9.626,22.866v10.19h-9.626Z" fill="#5f95f4"/>
      <path id="Tracé_152" data-name="Tracé 152" d="M999.963,697.627l9.625,22.866v6.866h-9.625Z" fill="#5f95f4"/>
      <path id="Tracé_153" data-name="Tracé 153" d="M953.749,739.587h66.03v4.556h-66.03Zm124.425,0h10.194v-4.875h2.893v-7.353h6.276v7.352h-2.888v4.875h4.376v4.556h-4.376v44.153h-6.277V744.143H1080.1l-1.918-4.556Z" fill="#5f95f4"/>
      <path id="Tracé_154" data-name="Tracé 154" d="M953.749,800.523h134.62v-4.874h2.893V788.3h6.276v7.352h-2.889v4.876h4.376v4.556h-4.376v55.928h-6.276V805.078H953.749v-4.556Z" fill="#5f95f4"/>
      <path id="Tracé_155" data-name="Tracé 155" d="M1077.732,672.092v29.562h0c-.021.795-.237,1.1-1.032,1.08-.766-.02-1.829-1.54-1.849-2.3V672.092m-100.067,0v55.267h0c-.021.8-.645.441-1.441.419-.766-.02-1.42.347-1.44-.419V672.092Zm12.081,0h0v25.536h0c0,.795-.645.384-1.44.384s-1.44.411-1.44-.384V672.092m14.96,0h0v25.536c0,.795-.645.49-1.44.49s-1.44.3-1.44-.49V672.092h0m14.962-.076c0,.026,0,.051,0,.077l-.038,44.838.038.83c-1.319.683-.59,2.3-1.4,2.322a1.441,1.441,0,0,1-1.479-1.4c0-.025,0-.051,0-.076V672.092m14.963-.077c0,.026,0,.051,0,.077v28.452c-.982.88-1.21,2.45-2.006,2.471s-.854-.491-.875-1.287c0-.025,0-.051,0-.076v-29.56m14.963-.077c0,.026,0,.051,0,.077v11.332l-.61,1.2c-.655.71-.607,1.458-1.4,1.479s-.847-.528-.868-1.324c0-.025,0-.051,0-.076V672.092m33.338-.077c0,.026,0,.051,0,.077V684.7a1.156,1.156,0,0,1-1.213,1.31c-.3-.89-1.647-2.086-1.668-2.881,0-.026,0-.051,0-.077V672.092" fill="#bad1f8"/>
      <path id="Tracé_292" data-name="Tracé 292" d="M1099.024,894.853a.791.791,0,0,1-.789-.79V867.22h-9.073v26.842a.781.781,0,0,1-.788.752.8.8,0,0,1-.793-.77V867.22h-77.2v26.842a.783.783,0,0,1-.789.752.8.8,0,0,1-.793-.77V861.8h-6.309v32.264a.789.789,0,1,1-1.579,0v-4.5H973.09v4.5a.79.79,0,0,1-1.58,0V861.8H965.2v32.265a.781.781,0,0,1-.788.752.8.8,0,0,1-.793-.77V867.22h-9.072v26.7l-.005.13a.785.785,0,0,1-.79.77.794.794,0,0,1-.791-.769V867.22h-2.1a.791.791,0,0,1-.79-.79v-5.424a.791.791,0,0,1,.79-.791h2.1V796.432h-2.1a.791.791,0,0,1-.79-.79V788.29a.792.792,0,0,1,.791-.791h2.1v-52h-2.1a.79.79,0,0,1-.79-.789v-7.353a.79.79,0,0,1,.79-.789h2.1V663.336a.792.792,0,0,1,.791-.791h10.651a.792.792,0,0,1,.791.792V671.3h77.142l6-8.421a.788.788,0,0,1,1.293.016l5.99,8.406h31.959v-7.965a.791.791,0,0,1,.791-.791h10.652a.791.791,0,0,1,.79.791v63.234h2.1a.791.791,0,0,1,.79.79v7.352a.791.791,0,0,1-.79.79h-2.1v52h2.1a.791.791,0,0,1,.79.791v7.352a.791.791,0,0,1-.79.79h-2.1v63.78h2.1a.791.791,0,0,1,.79.791v5.423a.791.791,0,0,1-.79.791h-2.1v26.842A.791.791,0,0,1,1099.024,894.853ZM973.08,887.976h27.825V884H973.08Zm0-5.553h27.825v-3.972H973.08Zm0-5.552h27.825V873.6l-.141-.572-.51,0H973.08Zm0-5.423h27.825v-4.23H973.08Zm-21.434-5.809h11.965V861.8H951.646Zm140.406,0h9.072v-3.843h-9.072Zm-81.682,0h80.1v-3.843h-80.1Zm-37.29,0h27.825v-3.843H973.08Zm18.143-52.025a14.542,14.542,0,0,0-11.623,6.125l-.12.169v40.31H997.3V816.482l-.146-.178a15.779,15.779,0,0,0-2-2.054l-.109-.093-.138-.039a13.6,13.6,0,0,0-3.672-.506ZM987,809.583a13.8,13.8,0,0,1,6.43,1.6,16.106,16.106,0,0,1,5.186,4.443.859.859,0,0,1,.268.6v43.989h9.918v-58.9H954.546v58.9h20.575V816.226a.784.784,0,0,1,.191-.514l.288-.329-.013-.026a16.141,16.141,0,0,1,4.987-4.181A13.794,13.794,0,0,1,987,809.583Zm102.166,50.628h9.073v-58.9h-9.073Zm-78.784,0h77.2v-58.9h-77.2Zm-55.835-60.479h143.691v-3.3H954.544Zm137.5-4.876h9.072v-5.771h-9.072Zm-84.571,0h82.99v-5.771h-82.99Zm-55.834,0H1005.9v-5.771H951.642ZM1067.718,748.4a.792.792,0,0,1,.79.79v38.317h19.072V740.376h-9.4a.792.792,0,0,1-.791-.791V735.5h-2.1a.787.787,0,0,1-.79-.788v-7.354a.79.79,0,0,1,.789-.789h12.3v-7.72l-32.941-46.216a1.408,1.408,0,0,1-.1-.134l-5.562-7.808-5.536,7.769a1.184,1.184,0,0,1-.1.14l-32.969,46.251v7.72h12.3a.789.789,0,0,1,.79.788v7.354a.79.79,0,0,1-.789.789h-2.1v4.081a.791.791,0,0,1-.791.79h-9.4V787.5h19.072V749.188a.79.79,0,0,1,.788-.79h14.979a.792.792,0,0,1,.79.79v38.317h5.947V749.188a.791.791,0,0,1,.789-.79Zm-73.242,0a.792.792,0,0,1,.791.79v38.317h13.521V740.376H954.535V787.5h24.174V749.188a.79.79,0,0,1,.789-.79Zm94.677-8.021V787.5h9.074V740.376ZM1056.311,787.5h10.609V776.456h-10.609Zm-22.5,0h10.609V776.456h-10.609Zm-50.733,0h10.611V776.456H983.075Zm73.236-12.628h10.609V754.287h-10.609Zm-22.5,0h10.609V754.287h-10.609Zm-50.733,0h10.611V754.287H983.075Zm95.883-36.076h19.269v-3.3h-19.269Zm-124.418,0h64.448v-3.3H954.54Zm137.506-4.876h9.073v-5.772h-9.073Zm-15.981,0h14.4v-5.772h-14.4Zm-68.589,0h14.4v-5.772h-14.4Zm-55.834,0H1005.9v-5.772H951.642Zm48.319-37.083a.791.791,0,0,1,.79.79V726.57h8.045V718.6a.786.786,0,0,1,.183-.505l32.23-45.216H965.2V726.57h8.046V697.627a.79.79,0,0,1,.789-.79Zm-5.48,6.077a.791.791,0,0,1,.791.791V726.57h3.9V698.416h-24.35v28.153h3.892V703.705a.793.793,0,0,1,.792-.791Zm94.68,23.655h9.073v-7.175h-9.073Zm-106.08,0h10.611V708.8H983.081Zm-28.538,0h9.072v-7.175h-9.072Zm134.618-8.756h9.073V664.125h-9.073Zm-134.618,0h9.072V664.125h-9.072Zm133.038-1.673V672.882h-30.833ZM1026.157,884a.791.791,0,0,1-.789-.79V872.241a.792.792,0,0,1,.791-.791l45.633,0a.79.79,0,0,1,.789.79v10.976a.789.789,0,0,1-.789.789Zm32.852-1.58h12v-5.086h-12Zm-18.481,0h16.9v-5.086h-16.9Zm-10.792,0h9.212v-5.086h-9.212Zm-45.483-28.638a.789.789,0,0,1-.789-.789v-34.8a.79.79,0,0,1,.789-.79h5.481a.791.791,0,0,1,.791.789v34.8a.787.787,0,0,1-.789.79Zm.792-1.585h3.9V818.983h-3.9Zm41.118,1.577a.79.79,0,0,1-.789-.789v-39.1a.791.791,0,0,1,.791-.791h.9l44.732,0a.792.792,0,0,1,.789.791v39.106a.787.787,0,0,1-.788.791Zm32.844-1.58h12V841.148h-12Zm-18.476,0h16.9V841.148h-16.9Zm-10.791,0h9.212V841.147h-9.212Zm0-12.623,9.212-.005V818.983h-9.212Zm29.267,0h12V818.984l-12-.005Zm-18.476,0h16.9V818.984l-16.9-.005Zm-.794-104.073a.787.787,0,0,1-.79-.788v-7.354a.79.79,0,0,1,.789-.789h2.982V703.063a6.258,6.258,0,0,1,10.682-4.393l.077.081a6.212,6.212,0,0,1,1.758,4.348v23.474h2.981a.789.789,0,0,1,.79.788v7.354a.79.79,0,0,1-.693.784Zm.789-1.579h16.9v-5.772h-16.9Zm12.458-31.188a6.1,6.1,0,0,0-5.9,6.114v17.723h6.571V702.708Z" fill="#141457"/>
      <path id="Tracé_293" data-name="Tracé 293" d="M759.293,892.212V865.4a.854.854,0,0,1,.853-.853h1.937V787.1l-14.535,10.953a2.36,2.36,0,0,1-3.3-.461l-3.609-4.792a2.362,2.362,0,0,1,.463-3.295L841,714.234a.853.853,0,0,1,1.038.01l1.369-1.458-1.361,1.456.107.089,99.757,75.18a2.357,2.357,0,0,1,.46,3.289l-3.611,4.793a2.356,2.356,0,0,1-3.293.459L920.929,787.1v77.449h2.054a.753.753,0,0,1,.752.755l-.008,1.952V892.31Z" fill="#fff"/>
      <path id="Tracé_294" data-name="Tracé 294" d="M843.24,748.693a13.448,13.448,0,1,1-13.448,13.448h0A13.448,13.448,0,0,1,843.24,748.693Z" fill="#5f95f4"/>
      <path id="Tracé_295" data-name="Tracé 295" d="M920.076,793.3l-25.947-19.553L858.61,800.507v44.155l-22.2-52.742,5.1,6.773,17.1-12.894,30.734-23.159L920.079,785.7Z" fill="#5f95f4"/>
      <rect id="Rectangle_104" data-name="Rectangle 104" width="19.568" height="8.026" transform="translate(802.552 878.02)" fill="#5f95f4"/>
      <path id="Tracé_296" data-name="Tracé 296" d="M878,895.5h-12.03V867.595L878,895.5Z" fill="#5f95f4"/>
      <path id="Tracé_297" data-name="Tracé 297" d="M868.758,865.795h10.024V829.556a36.549,36.549,0,0,1,10.328-5.27v31.2h5.651v-32.41a34.36,34.36,0,0,1,15.165,1.789v-26.2c-15.645-9.257-29.184-8.588-41.169,0v67.13Z" fill="#5f95f4"/>
      <path id="Tracé_298" data-name="Tracé 298" d="M762.944,786.58l78.569-59.205,40.09,29.9-5.055,3.809L846.2,738.538l-8.8,6.63a14.8,14.8,0,0,0-8.414,6.341l-66.055,49.774v-14.7Z" fill="#5f95f4"/>
      <path id="Tracé_215" data-name="Tracé 215" d="M833.5,854.922H791.276V804.114H833.5Z" fill="#bfd5fa"/>
      <path id="Tracé_216" data-name="Tracé 216" d="M883.815,823.784q3.552-.788,7.256-1.38v32.327h-7.256Z" fill="#bfd5fa"/>
      <path id="Tracé_299" data-name="Tracé 299" d="M922.875,894.165a.784.784,0,0,1-.144-.013.912.912,0,0,1-.71-.918V866.258h-8.443V893.31a.837.837,0,0,1-.012.14.851.851,0,0,1-.841.715.777.777,0,0,1-.144-.013.913.913,0,0,1-.71-.919v-5.881H866.827v5.958a.9.9,0,0,1-.013.145.85.85,0,0,1-.84.71.776.776,0,0,1-.144-.013.913.913,0,0,1-.71-.919V866.258h-8.443V893.31a1,1,0,0,1-.012.144.852.852,0,0,1-.841.711.777.777,0,0,1-.144-.013.911.911,0,0,1-.71-.918V866.258H761.007v26.051l-.007,1a.836.836,0,0,1-.012.14.852.852,0,0,1-.841.715.789.789,0,0,1-.144-.013.912.912,0,0,1-.71-.918V865.4a.854.854,0,0,1,.853-.853h1.937V787.1l-14.535,10.953a2.36,2.36,0,0,1-3.3-.461l-3.609-4.792a2.362,2.362,0,0,1,.463-3.295L841,714.234a.853.853,0,0,1,1.038.01l.005-.006.119.1L876.5,740.211l65.412,49.3a2.357,2.357,0,0,1,.46,3.289l-3.611,4.793a2.356,2.356,0,0,1-3.293.459L920.931,787.1v77.44h.922l1.131.008a.754.754,0,0,1,.752.755l-.008,1.953V893.31a.837.837,0,0,1-.012.14A.852.852,0,0,1,922.875,894.165Zm-56.054-8.518h45.044V880.21H866.821Zm0-7.142h45.044v-5.27H866.821Zm0-6.977h45.044v-5.27H866.821ZM763.794,785.813v78.743h93.964V788.747l.008-1.638-1.615,1.2-12.934,9.747a2.355,2.355,0,0,1-3.294-.461l-3.611-4.792a2.364,2.364,0,0,1,.462-3.3l43.673-32.908-38.939-29.344ZM877.41,864.552h23.882V805.64H877.41Zm32.479-66.169.575.468a.842.842,0,0,1,.316.66v65.04h8.444V785.813l-29.882-22.518-29.879,22.518v78.733h8.444V799.508a.837.837,0,0,1,.316-.662,31.6,31.6,0,0,1,41.678-.493Zm-7.743,5.552a.853.853,0,0,1,.851.852v59.764h6.077V799.89l-.351-.3a29.855,29.855,0,0,0-38.762,0l-.351.3v64.661H875.7V804.788a.855.855,0,0,1,.854-.853Zm18.707-19.014,16.153,12.174,4.4-5.835-52.065-39.233-52.065,39.229,4.406,5.832,47.125-35.51a.858.858,0,0,1,.541-.194.835.835,0,0,1,.511.172l30.252,22.8Zm-179.246,6.33,4.4,5.832,94.966-71.559a.866.866,0,0,1,.542-.194.842.842,0,0,1,.511.172l39.843,30.021,6.07-4.572-46.428-34.985Zm57.288,96.1a.854.854,0,0,1-.853-.853V872.382a.856.856,0,0,1,.855-.854h23.766a.854.854,0,0,1,.852.854V886.5a.853.853,0,0,1-.849.851Zm4.187-1.705H821.81v-7.206H803.082Zm-15.032-29.7a.855.855,0,0,1-.853-.853V799.516a.853.853,0,0,1,.853-.851h1v-.005H833.5a.854.854,0,0,1,.852.853V855.1a.854.854,0,0,1-.852.852Zm35.458-49.375V854.24h9.134V805.574h-9.128ZM799.742,854.24h22.065V805.573H799.742Zm-7.5,0h5.8V805.573h-5.8Zm91.675,1.706a.853.853,0,0,1-.851-.852v-41.3a.854.854,0,0,1,.852-.853h10.853a.854.854,0,0,1,.852.853v41.3a.854.854,0,0,1-.852.852Zm4.9-33a34.445,34.445,0,0,0-3.437,1.291l-.6.263v29.742h5.336V822.534Zm-47.386-50.506a14.3,14.3,0,1,1,14.3-14.3,14.317,14.317,0,0,1-14.3,14.3Zm2.714-22.426a14.46,14.46,0,0,0-14.32,12.662l-.035.281.117.258a12.6,12.6,0,0,0,23.136-9.973l-.107-.262-.228-.168a14.475,14.475,0,0,0-8.563-2.8Z" fill="#141457"/>
      <path id="Tracé_217" data-name="Tracé 217" d="M720.769,896.36c-.5,0-.909-.83-.909-1.853s.407-1.853.909-1.853h501.173c.5,0,.909.83.909,1.853s-.407,1.853-.909,1.853Z" transform="translate(-10.365)" fill="#fff"/>
      <g id="Groupe_515" data-name="Groupe 515">
        <path id="Tracé_17" data-name="Tracé 17" d="M749.319,780.552a38.981,38.981,0,1,1-38.982,38.981A38.981,38.981,0,0,1,749.319,780.552Z" fill="#5f95f4"/>
        <path id="Tracé_18" data-name="Tracé 18" d="M745.146,784.634a29.853,29.853,0,1,1-29.853,29.853,29.854,29.854,0,0,1,29.853-29.853Z" fill="#dfeafd"/>
        <path id="Tracé_300" data-name="Tracé 300" d="M749.325,890.845a.858.858,0,0,1-.851-.833V859.37l-.955-.043a39.832,39.832,0,0,1,1.775-79.622q.915,0,1.839.042a39.831,39.831,0,0,1,0,79.58l-.954.043v30.579a.86.86,0,0,1-.833.9Zm.027-109.441c-.642,0-1.284.016-1.932.048a38.129,38.129,0,0,0,0,76.162l1.05.052V846.894l-14.393-14.4a.852.852,0,0,1,.6-1.455.845.845,0,0,1,.6.25l13.192,13.191V819.533a.853.853,0,0,1,1.705.024v12.65l6.834-6.833a.853.853,0,0,1,1.16.074.855.855,0,0,1,0,1.172l-8,8v23.049l1.05-.052a38.129,38.129,0,0,0-1.873-76.21Z" fill="#141457"/>
      </g>
      <g id="Groupe_528" data-name="Groupe 528" transform="translate(416.915)">
        <path id="Tracé_17-2" data-name="Tracé 17" d="M749.319,780.552a38.981,38.981,0,1,1-38.982,38.981A38.981,38.981,0,0,1,749.319,780.552Z" fill="#5f95f4"/>
        <path id="Tracé_18-2" data-name="Tracé 18" d="M745.146,784.634a29.853,29.853,0,1,1-29.853,29.853,29.854,29.854,0,0,1,29.853-29.853Z" fill="#dfeafd"/>
        <path id="Tracé_300-2" data-name="Tracé 300" d="M749.325,890.845a.858.858,0,0,1-.851-.833V859.37l-.955-.043a39.832,39.832,0,0,1,1.775-79.622q.915,0,1.839.042a39.831,39.831,0,0,1,0,79.58l-.954.043v30.579a.86.86,0,0,1-.833.9Zm.027-109.441c-.642,0-1.284.016-1.932.048a38.129,38.129,0,0,0,0,76.162l1.05.052V846.894l-14.393-14.4a.852.852,0,0,1,.6-1.455.845.845,0,0,1,.6.25l13.192,13.191V819.533a.853.853,0,0,1,1.705.024v12.65l6.834-6.833a.853.853,0,0,1,1.16.074.855.855,0,0,1,0,1.172l-8,8v23.049l1.05-.052a38.129,38.129,0,0,0-1.873-76.21Z" fill="#141457"/>
      </g>
    </g>
  </g>
</svg>
