<svg xmlns="http://www.w3.org/2000/svg" width="503.999" height="285.424" viewBox="0 0 503.999 285.424">
  <g id="Groupe_1272" data-name="Groupe 1272" transform="translate(-670.495 -882.623)">
    <path id="Tracé_279" data-name="Tracé 279" d="M1089.363,1104.154a.527.527,0,0,1-.527-.527v-7.583h-25.3v7.583a.527.527,0,1,1-1.053,0v-7.583h-3.444v-1.054h3.444v-3.52h-3.444v-1.054h3.444V1086.9h-3.444v-1.053h34.293v1.053h-3.443v3.52h3.443v1.053h-3.443v3.52h3.443v1.053h-3.443v7.583A.527.527,0,0,1,1089.363,1104.154Zm-25.827-9.161h25.3v-3.52h-25.3Zm0-4.573h25.3v-3.52h-25.3Z" transform="translate(33.85 63.119)" fill="#141457"/>
    <path id="Tracé_503" data-name="Tracé 503" d="M1089.363,1104.154a.527.527,0,0,1-.527-.527v-7.583h-25.3v7.583a.527.527,0,1,1-1.053,0v-7.583h-3.444v-1.054h3.444v-3.52h-3.444v-1.054h3.444V1086.9h-3.444v-1.053h34.293v1.053h-3.443v3.52h3.443v1.053h-3.443v3.52h3.443v1.053h-3.443v7.583A.527.527,0,0,1,1089.363,1104.154Zm-25.827-9.161h25.3v-3.52h-25.3Zm0-4.573h25.3v-3.52h-25.3Z" transform="translate(-352.92 63.119)" fill="#141457"/>
    <g id="Groupe_714" data-name="Groupe 714" transform="translate(903.713 1091.915)">
      <path id="Tracé_13" data-name="Tracé 13" d="M1189.875,998.286a26.477,26.477,0,1,1-26.477,26.477A26.477,26.477,0,0,1,1189.875,998.286Z" transform="translate(-1162.881 -997.76)" fill="#5f95f4"/>
      <path id="Tracé_14" data-name="Tracé 14" d="M1188.889,1002.581a20.277,20.277,0,1,1-20.277,20.277,20.277,20.277,0,0,1,20.277-20.277Z" transform="translate(-1164.729 -999.283)" fill="#dfeafd"/>
      <path id="Tracé_288" data-name="Tracé 288" d="M1189.591,1072.83a.528.528,0,0,1-.528-.527v-20.82l-.7-.032a26.993,26.993,0,1,1,2.451,0l-.7.032v20.82A.527.527,0,0,1,1189.591,1072.83Zm.021-74.3q-.655,0-1.316.032a25.95,25.95,0,0,0,0,51.835l.768.039v-7.395l-9.794-9.794a.526.526,0,0,1,.744-.745l9.05,9.05v-17.074a.527.527,0,1,1,1.054,0v8.736l4.717-4.716a.527.527,0,0,1,.745,0,.529.529,0,0,1,0,.745l-5.461,5.46v15.733l.769-.039a25.95,25.95,0,0,0-1.275-51.868Z" transform="translate(-1162.597 -997.472)" fill="#141457"/>
    </g>
    <path id="Tracé_20" data-name="Tracé 20" d="M1327.482,801.2v-7.652h9.311v48.287h2.223v6.424h-2.223v91.184h2.223v6.423h-2.223v54.151H1227.917V945.873h-2.224v-6.426h2.223V848.265h-2.223v-6.426h2.223V793.552h9.307v7.65Z" transform="translate(-252.194 166.722)" fill="#fff"/>
    <path id="Tracé_21" data-name="Tracé 21" d="M1257.065,1052.436h43.421v34.723h-43.421Z" transform="translate(-263.312 74.961)" fill="#bfd5fa"/>
    <path id="Tracé_22" data-name="Tracé 22" d="M1257.618,1092.567h13.213l29.85-17.244v-7.63Z" transform="translate(-263.509 69.554)" fill="#f2f7ff"/>
    <path id="Tracé_23" data-name="Tracé 23" d="M1329.291,844.927a1.26,1.26,0,0,1-2.518,0V806.318a1.26,1.26,0,0,1,2.518,0v38.609Zm-67.693,0a1.26,1.26,0,0,1-2.518,0V806.318a1.26,1.26,0,0,1,2.518,0h0v38.609Zm11.283-8.165c0,.66-.564.882-1.259.882s-1.259.439-1.259-.221v-31.1a1.261,1.261,0,0,1,2.518,0h0Zm11.282-5.284a1.213,1.213,0,0,1-1.259,1.177c-.7,0-1.259-.071-1.259-.731V806.318a1.26,1.26,0,0,1,2.518,0Zm8.765-4.1V806.317a1.26,1.26,0,0,1,2.517,0v21.062Zm13.8,4.545c0,.661-.564.709-1.259.709a1.229,1.229,0,0,1-1.259-1.2V806.318a1.26,1.26,0,0,1,2.518,0Zm11.282,5.5c0,.66-.564.241-1.259.241s-1.259-.241-1.259-.9V806.318a1.26,1.26,0,0,1,2.517,0Z" transform="translate(-264.027 162.622)" fill="#bad1f8"/>
    <path id="Tracé_24" data-name="Tracé 24" d="M1229.137,884.9h108.875v3.98H1229.137Z" transform="translate(-253.414 134.342)" fill="#5f95f4"/>
    <path id="Tracé_25" data-name="Tracé 25" d="M1229.137,1029.506h108.874v3.981H1229.137Z" transform="translate(-253.414 83.089)" fill="#5f95f4"/>
    <path id="Tracé_26" data-name="Tracé 26" d="M1306.422,899.674h11.555v23.562h-11.555Z" transform="translate(-280.807 129.107)" fill="#bfd5fa"/>
    <path id="Tracé_27" data-name="Tracé 27" d="M1257.065,899.674h11.751v23.562h-11.751Z" transform="translate(-263.312 129.107)" fill="#bfd5fa"/>
    <path id="Tracé_28" data-name="Tracé 28" d="M1355.143,975.109h11.77v23.425h-11.77Z" transform="translate(-298.076 102.37)" fill="#bfd5fa"/>
    <path id="Tracé_29" data-name="Tracé 29" d="M1305.786,975.109h11.966v23.425h-11.966Z" transform="translate(-280.582 102.37)" fill="#bfd5fa"/>
    <path id="Tracé_30" data-name="Tracé 30" d="M1257.065,975.109h11.751v23.425h-11.751Z" transform="translate(-263.312 102.37)" fill="#bfd5fa"/>
    <path id="Tracé_31" data-name="Tracé 31" d="M1355.27,1050.671h11.688v35.862H1355.27Z" transform="translate(-298.121 75.587)" fill="#bfd5fa"/>
    <path id="Tracé_32" data-name="Tracé 32" d="M1355.143,899.674h11.77v23.562h-11.77Z" transform="translate(-298.076 129.107)" fill="#bfd5fa"/>
    <path id="Tracé_33" data-name="Tracé 33" d="M1259.259,1052.055a2.856,2.856,0,1,1-5.711.09c0-.028,0-.056,0-.083v-7.408h5.711Z" transform="translate(-262.066 77.72)" fill="#fff"/>
    <path id="Tracé_34" data-name="Tracé 34" d="M1268.106,1052.055a2.856,2.856,0,0,1-5.711.006v-7.408h5.711Z" transform="translate(-265.202 77.72)" fill="#7faaf6"/>
    <path id="Tracé_35" data-name="Tracé 35" d="M1276.953,1052.055a2.856,2.856,0,0,1-5.711.09c0-.028,0-.056,0-.083v-7.408h5.711Z" transform="translate(-268.337 77.72)" fill="#fff"/>
    <path id="Tracé_36" data-name="Tracé 36" d="M1285.8,1052.055a2.856,2.856,0,0,1-5.711.09c0-.028,0-.056,0-.083v-7.408h5.711Z" transform="translate(-271.474 77.72)" fill="#7faaf6"/>
    <path id="Tracé_37" data-name="Tracé 37" d="M1294.648,1052.055a2.856,2.856,0,0,1-5.711.006v-7.408h5.711Z" transform="translate(-274.61 77.72)" fill="#fff"/>
    <path id="Tracé_38" data-name="Tracé 38" d="M1303.5,1052.055a2.856,2.856,0,0,1-5.711.006v-7.408h5.711Z" transform="translate(-277.746 77.72)" fill="#7faaf6"/>
    <path id="Tracé_39" data-name="Tracé 39" d="M1312.342,1052.055a2.856,2.856,0,0,1-5.711.09c0-.028,0-.056,0-.083v-7.408h5.711Z" transform="translate(-280.881 77.72)" fill="#fff"/>
    <path id="Tracé_40" data-name="Tracé 40" d="M1321.189,1052.055a2.856,2.856,0,0,1-5.711.09c0-.028,0-.056,0-.083v-7.408h5.711Z" transform="translate(-284.017 77.72)" fill="#7faaf6"/>
    <path id="Tracé_290" data-name="Tracé 290" d="M1336.5,1000.263a.528.528,0,0,1-.527-.527V946.11h-107.82v53.625a.527.527,0,0,1-1.054,0V946.11h-1.7a.527.527,0,0,1-.527-.526v-6.423a.528.528,0,0,1,.527-.527h1.7V848.5h-1.7a.527.527,0,0,1-.527-.527v-6.423a.528.528,0,0,1,.527-.527l1.7,0V793.265a.528.528,0,0,1,.527-.527h9.308a.528.528,0,0,1,.527.526v7.123h89.2v-7.122a.528.528,0,0,1,.527-.527h9.308a.528.528,0,0,1,.527.527v47.761h1.7a.528.528,0,0,1,.526.527v6.423a.527.527,0,0,1-.527.527h-1.7v90.131h1.7a.528.528,0,0,1,.526.527v6.424a.527.527,0,0,1-.526.527h-1.7v53.624A.527.527,0,0,1,1336.5,1000.263Zm-110.57-55.2H1338.2v-5.371H1225.93Zm2.223-92.293v85.869h107.819V852.763h-.731Zm0-1.053h107.819V848.5H1228.153Zm-2.223-4.261H1338.2v-5.37H1225.93Zm2.227-6.425h8.255v-6.6h-8.255Zm9.307,0h19.42V833.9a.531.531,0,0,1,.34-.493l24.626-11.116a.524.524,0,0,1,.431,0l.143.065h.006l24.5,11.063a.526.526,0,0,1,.31.478v7.123h19.421V801.441h-89.2Zm90.257,0h8.255v-6.6h-8.255Zm-69.784-6.785v6.785h48.255v-6.785l-24.127-10.894Zm-29.78-.862h8.255V793.791h-8.255Zm99.564,0h8.255V793.791h-8.255Zm-6.979,166.888a.527.527,0,0,1-.527-.527v-4.1h-12.97v4.1a.527.527,0,1,1-1.053,0V955.362a.527.527,0,0,1,.527-.526h14.023a.527.527,0,0,1,.527.526v44.373A.527.527,0,0,1,1320.741,1000.263Zm-11.062-5.683,10.537,0v-9.221h-10.537Zm0-10.273h10.537V959.655h-10.537Zm-20.6,15.955a.528.528,0,0,1-.527-.527v-4.1h-44.637v4.1a.527.527,0,1,1-1.053,0V955.362a.526.526,0,0,1,.526-.526h45.691a.528.528,0,0,1,.526.527v44.373a.525.525,0,0,1-.526.527ZM1253.8,994.58l24.864,0v-9.222H1253.8Zm25.918-9.218v9.218h8.834v-9.219Zm-33.372,9.218h6.4v-9.219h-6.4Zm6.93-29.595a.528.528,0,0,1,.527.527v18.8h24.862V965.516a.527.527,0,1,1,1.054,0v18.791h8.834V955.89h-44.637v8.634l2.434,1.291v18.492h6.4V965.512A.528.528,0,0,1,1253.273,964.985Zm-9.889-30.564a.527.527,0,0,1-.526-.527V907.332h-1.095a.527.527,0,0,1-.52-.449l-.858-5.844a.683.683,0,0,1-.016-.139.526.526,0,0,1,.526-.526h6.408V898.9a.527.527,0,0,1,.527-.527h5.13a.527.527,0,0,1,.527.527v1.474h6.408a.527.527,0,0,1,.527.526.538.538,0,0,1-.011.106l-.863,5.876a.528.528,0,0,1-.52.449h-1.094v26.563a.528.528,0,0,1-.527.527Zm2.962-1.054h10.537v-9h-10.537Zm0-10.056h10.536V911.1h-10.536Zm-4.128-17.032h16.359l.712-4.853h-6.327a.528.528,0,0,1-.526-.527v-1.472h-4.077V900.9a.528.528,0,0,1-.527.527H1241.5Zm32.834,28.142a.527.527,0,0,1-.526-.527V907.33h-1.095a.528.528,0,0,1-.52-.449l-.858-5.844a.7.7,0,0,1-.017-.139.526.526,0,0,1,.526-.525h6.408V898.9a.528.528,0,0,1,.527-.527h5.441a.527.527,0,0,1,.526.527v1.474h6.1a.526.526,0,0,1,.526.525.6.6,0,0,1-.01.11l-.864,5.872a.526.526,0,0,1-.519.449h-1.1v26.563a.527.527,0,0,1-.527.527h-14.023Zm2.961-1.054h10.536v-9h-10.537Zm0-10.056h10.537V911.1h-10.537Zm-4.126-17.032h16.359l.712-4.853h-6.016a.528.528,0,0,1-.527-.527v-1.473h-4.388V900.9a.527.527,0,0,1-.526.527h-6.328Zm32.835,28.142a.528.528,0,0,1-.527-.527V907.33H1305.1a.528.528,0,0,1-.52-.449l-.858-5.844a.722.722,0,0,1-.016-.133.529.529,0,0,1,.527-.532h6.407V898.9a.527.527,0,0,1,.527-.527h5.13a.527.527,0,0,1,.526.527v1.473h6.409a.526.526,0,0,1,.526.526.475.475,0,0,1-.01.1l-.863,5.878a.529.529,0,0,1-.521.449h-1.093v26.563a.528.528,0,0,1-.527.527Zm2.96-1.053h10.536v-9H1309.68Zm0-10.056h10.536V911.1H1309.68Zm-4.128-17.033h16.359l.714-4.853H1316.3a.528.528,0,0,1-.527-.527v-1.472h-4.077V900.9a.527.527,0,0,1-.526.527h-6.328Zm-62.167-20.418a.526.526,0,0,1-.526-.526V858.244a.526.526,0,0,1,.526-.526h14.025a.528.528,0,0,1,.527.526v27.087a.528.528,0,0,1-.527.526l-.732,0Zm2.962-1.053h10.536v-9h-10.536Zm0-10.056h10.536V862.536h-10.536Zm28.7,11.109a.527.527,0,0,1-.526-.526V858.244a.527.527,0,0,1,.526-.526h14.024a.527.527,0,0,1,.526.526v27.087a.527.527,0,0,1-.526.526h-14.024Zm2.961-1.053h10.536v-9h-10.537Zm0-10.07,1.037.014h9.5V862.536h-10.537Zm28.708,11.122a.528.528,0,0,1-.528-.526V858.244a.528.528,0,0,1,.528-.526h14.023a.527.527,0,0,1,.527.526v27.087a.527.527,0,0,1-.527.526H1306.72Zm2.96-1.053h10.536v-9H1309.68Zm0-10.056h10.536V862.536H1309.68Z" transform="translate(-251.903 167.011)" fill="#141457"/>
    <g id="Groupe_512" data-name="Groupe 512" transform="translate(991.481 1122.374)">
      <path id="Tracé_33-2" data-name="Tracé 33" d="M1259.259,1052.055a2.856,2.856,0,1,1-5.711.09c0-.028,0-.056,0-.083v-7.408h5.711Z" transform="translate(-1253.547 -1044.654)" fill="none" stroke="#141457" stroke-width="1.5"/>
      <path id="Tracé_34-2" data-name="Tracé 34" d="M1268.106,1052.055a2.856,2.856,0,0,1-5.711.006v-7.408h5.711Z" transform="translate(-1256.683 -1044.654)" fill="none" stroke="#141457" stroke-width="1.5"/>
      <path id="Tracé_35-2" data-name="Tracé 35" d="M1276.953,1052.055a2.856,2.856,0,0,1-5.711.09c0-.028,0-.056,0-.083v-7.408h5.711Z" transform="translate(-1259.819 -1044.654)" fill="none" stroke="#141457" stroke-width="1.5"/>
      <path id="Tracé_36-2" data-name="Tracé 36" d="M1285.8,1052.055a2.856,2.856,0,0,1-5.711.09c0-.028,0-.056,0-.083v-7.408h5.711Z" transform="translate(-1262.955 -1044.654)" fill="none" stroke="#141457" stroke-width="1.5"/>
      <path id="Tracé_37-2" data-name="Tracé 37" d="M1294.648,1052.055a2.856,2.856,0,0,1-5.711.006v-7.408h5.711Z" transform="translate(-1266.091 -1044.654)" fill="none" stroke="#141457" stroke-width="1.5"/>
      <path id="Tracé_38-2" data-name="Tracé 38" d="M1303.5,1052.055a2.856,2.856,0,0,1-5.711.006v-7.408h5.711Z" transform="translate(-1269.227 -1044.654)" fill="none" stroke="#141457" stroke-width="1.5"/>
      <path id="Tracé_39-2" data-name="Tracé 39" d="M1312.342,1052.055a2.856,2.856,0,0,1-5.711.09c0-.028,0-.056,0-.083v-7.408h5.711Z" transform="translate(-1272.362 -1044.654)" fill="none" stroke="#141457" stroke-width="1.5"/>
      <path id="Tracé_40-2" data-name="Tracé 40" d="M1321.189,1052.055a2.856,2.856,0,0,1-5.711.09c0-.028,0-.056,0-.083v-7.408h5.711Z" transform="translate(-1275.498 -1044.654)" fill="none" stroke="#141457" stroke-width="1.5"/>
    </g>
    <g id="Groupe_715" data-name="Groupe 715" transform="translate(740.414 1020.822)">
      <path id="Tracé_293" data-name="Tracé 293" d="M755.579,857.358v-21.6a.688.688,0,0,1,.687-.687h1.561v-62.4l-11.712,8.825a1.9,1.9,0,0,1-2.656-.372l-2.908-3.861a1.9,1.9,0,0,1,.373-2.655l80.486-60.652a.688.688,0,0,1,.836.008l1.1-1.175-1.1,1.173.086.072,80.379,60.576a1.9,1.9,0,0,1,.371,2.65l-2.91,3.862a1.9,1.9,0,0,1-2.653.37l-11.71-8.826v62.4h1.655a.606.606,0,0,1,.606.608l-.006,1.573v20.189Z" transform="translate(-740.173 -712.786)" fill="#fff"/>
      <path id="Tracé_294" data-name="Tracé 294" d="M840.628,748.693a10.836,10.836,0,1,1-10.836,10.836h0A10.835,10.835,0,0,1,840.628,748.693Z" transform="translate(-757.581 -719.761)" fill="#5f95f4"/>
      <path id="Tracé_295" data-name="Tracé 295" d="M903.823,787.341l-20.907-15.755L854.3,793.151v35.578l-17.888-42.5,4.109,5.457L854.3,781.3l24.764-18.66,24.765,18.584Z" transform="translate(-758.867 -722.47)" fill="#5f95f4"/>
      <rect id="Rectangle_104" data-name="Rectangle 104" width="15.767" height="6.467" transform="translate(50.263 133.137)" fill="#5f95f4"/>
      <path id="Tracé_296" data-name="Tracé 296" d="M875.664,890.082h-9.693V867.595l9.694,22.485Z" transform="translate(-764.609 -742.858)" fill="#5f95f4"/>
      <path id="Tracé_297" data-name="Tracé 297" d="M868.758,851.455h8.077v-29.2a29.449,29.449,0,0,1,8.322-4.246v25.139h4.553V817.034a27.685,27.685,0,0,1,12.219,1.442V797.365c-12.606-7.459-23.515-6.92-33.172,0v54.09Z" transform="translate(-765.15 -728.168)" fill="#5f95f4"/>
      <path id="Tracé_298" data-name="Tracé 298" d="M762.942,775.079l63.307-47.7,32.3,24.093-4.073,3.069L830.027,736.37l-7.091,5.342a11.926,11.926,0,0,0-6.78,5.109l-53.224,40.105V775.082Z" transform="translate(-744.594 -715.62)" fill="#5f95f4"/>
      <path id="Tracé_215" data-name="Tracé 215" d="M825.3,845.052h-34.02V804.114H825.3Z" transform="translate(-750.099 -730.527)" fill="#bfd5fa"/>
      <path id="Tracé_216" data-name="Tracé 216" d="M883.815,823.516q2.862-.635,5.846-1.112v26.047h-5.846Z" transform="translate(-768.075 -734.079)" fill="#bfd5fa"/>
      <path id="Tracé_299" data-name="Tracé 299" d="M887.385,859.18a.628.628,0,0,1-.116-.01.735.735,0,0,1-.572-.74V836.694h-6.8v21.8a.671.671,0,0,1-.01.113.686.686,0,0,1-.678.576.622.622,0,0,1-.116-.01.736.736,0,0,1-.572-.74V853.69H842.224v4.8a.728.728,0,0,1-.01.117.685.685,0,0,1-.677.572.621.621,0,0,1-.116-.01.736.736,0,0,1-.572-.74V836.694h-6.8v21.8a.8.8,0,0,1-.01.116.686.686,0,0,1-.678.573.622.622,0,0,1-.116-.01.734.734,0,0,1-.572-.74V836.694H756.96v20.991l-.006.806a.676.676,0,0,1-.01.113.687.687,0,0,1-.678.576.638.638,0,0,1-.116-.01.735.735,0,0,1-.572-.74V836a.688.688,0,0,1,.687-.687h1.561v-62.4l-11.712,8.825a1.9,1.9,0,0,1-2.656-.371l-2.908-3.861a1.9,1.9,0,0,1,.373-2.655L821.411,714.2a.688.688,0,0,1,.836.008l0,0,.1.081,27.668,20.847,52.706,39.723a1.9,1.9,0,0,1,.371,2.65l-2.909,3.862a1.9,1.9,0,0,1-2.653.37l-11.71-8.826v62.4h.743l.911.006a.607.607,0,0,1,.606.608l-.006,1.574v20.995a.678.678,0,0,1-.01.113A.687.687,0,0,1,887.385,859.18Zm-45.165-6.863h36.294v-4.381H842.219Zm0-5.755h36.294v-4.246H842.219Zm0-5.622h36.294v-4.246H842.219Zm-83.014-69.065v63.447h75.711V774.24l.006-1.32-1.3.964L823.2,781.737a1.9,1.9,0,0,1-2.654-.371l-2.91-3.861a1.9,1.9,0,0,1,.372-2.656L853.2,748.333l-31.375-23.644Zm91.546,63.444h19.243V787.851H850.751ZM876.921,782l.463.377a.678.678,0,0,1,.255.532v52.406h6.8V771.875l-24.077-18.144-24.075,18.144v63.439h6.8v-52.4a.674.674,0,0,1,.255-.533,25.466,25.466,0,0,1,33.582-.4Zm-6.239,4.474a.687.687,0,0,1,.686.687v48.155h4.9v-52.1l-.283-.242a24.056,24.056,0,0,0-31.232,0l-.283.242v52.1h4.9V787.165a.689.689,0,0,1,.688-.687Zm15.073-15.32,13.015,9.809,3.543-4.7-41.951-31.612-41.951,31.609,3.55,4.7,37.971-28.612a.691.691,0,0,1,.436-.156.672.672,0,0,1,.412.139l24.375,18.37Zm-144.427,5.1,3.543,4.7L821.39,723.3a.7.7,0,0,1,.437-.156.678.678,0,0,1,.412.139l32.1,24.189,4.891-3.684L821.823,715.6Zm46.16,77.433A.688.688,0,0,1,786.8,853V841.628a.69.69,0,0,1,.689-.688h19.149a.688.688,0,0,1,.687.688V853a.687.687,0,0,1-.684.686Zm3.374-1.374h15.09V846.51h-15.09Zm-12.112-23.93a.689.689,0,0,1-.687-.687V782.917a.688.688,0,0,1,.687-.686h.806v0h35.814a.688.688,0,0,1,.687.687V827.7a.688.688,0,0,1-.687.687ZM807.32,788.6V827.01h7.36V787.8h-7.355ZM788.171,827.01h17.779V787.8h-17.78Zm-6.043,0H786.8V787.8h-4.673Zm73.867,1.375a.687.687,0,0,1-.686-.687V794.421a.688.688,0,0,1,.687-.687h8.745a.688.688,0,0,1,.687.687V827.7a.688.688,0,0,1-.687.687Zm3.95-26.592a27.756,27.756,0,0,0-2.769,1.04l-.482.212V827.01h4.3V801.463Zm-38.181-40.7a11.522,11.522,0,1,1,11.523-11.522A11.535,11.535,0,0,1,821.763,761.1Zm2.187-18.07a11.651,11.651,0,0,0-11.538,10.2l-.028.226.094.208a10.152,10.152,0,0,0,18.642-8.036l-.086-.211-.184-.135a11.666,11.666,0,0,0-6.9-2.255Z" transform="translate(-740.173 -713.034)" fill="#141457"/>
    </g>
    <g id="Groupe_718" data-name="Groupe 718" transform="translate(703.152 957.574)">
      <g id="Groupe_529" data-name="Groupe 529" transform="translate(0 0)">
        <path id="Tracé_211-2" data-name="Tracé 211-2" d="M739.171,614.539v43.518H792l21.7,21.916V614.539Z" transform="translate(-739.171 -608.766)" fill="#fff"/>
        <path id="Tracé_88-2" data-name="Tracé 88-2" d="M739.171,607.374v43.518H792l21.7,21.916V607.374Z" transform="translate(-739.171 -607.374)" fill="#141457"/>
      </g>
      <path id="Tracé_365" data-name="Tracé 365" d="M671.285,317.889a.917.917,0,0,1,.84.533l2.4,5.1a.929.929,0,0,0,.7.521l5.426.841a.929.929,0,0,1,.524,1.565l-3.977,4.093a.928.928,0,0,0-.251.794l.921,5.72a.928.928,0,0,1-1.364.961l-4.773-2.625a.929.929,0,0,0-.9,0l-4.773,2.625a.928.928,0,0,1-1.364-.961l.921-5.72a.928.928,0,0,0-.251-.794l-3.977-4.093a.929.929,0,0,1,.524-1.565l5.426-.841a.929.929,0,0,0,.7-.521l2.4-5.1A.917.917,0,0,1,671.285,317.889Z" transform="translate(-634.024 -307.328)" fill="#fff"/>
    </g>
    <g id="Groupe_717" data-name="Groupe 717" transform="translate(1043.963 882.623)">
      <g id="Groupe_716" data-name="Groupe 716" transform="translate(0 0)">
        <path id="Tracé_88-2-2" data-name="Tracé 88-2" d="M817.864,607.374v43.518h-57l-21.7,21.916V607.374Z" transform="translate(-739.171 -607.374)" fill="#141457"/>
      </g>
      <path id="Tracé_506" data-name="Tracé 506" d="M671.285,317.889a.917.917,0,0,1,.84.533l2.4,5.1a.929.929,0,0,0,.7.521l5.426.841a.929.929,0,0,1,.524,1.565l-3.977,4.093a.928.928,0,0,0-.251.794l.921,5.72a.928.928,0,0,1-1.364.961l-4.773-2.625a.929.929,0,0,0-.9,0l-4.773,2.625a.928.928,0,0,1-1.364-.961l.921-5.72a.928.928,0,0,0-.251-.794l-3.977-4.093a.929.929,0,0,1,.524-1.565l5.426-.841a.929.929,0,0,0,.7-.521l2.4-5.1A.917.917,0,0,1,671.285,317.889Z" transform="translate(-631.937 -307.328)" fill="#fff"/>
    </g>
    <path id="Tracé_66" data-name="Tracé 66" d="M165.892,1113.934c-.389.179-.787-.239-.887-.934a1.567,1.567,0,0,1,.523-1.584.42.42,0,0,1,.364,0H668.07c.39-.18.786.238.887.933a1.568,1.568,0,0,1-.523,1.584.423.423,0,0,1-.364,0Z" transform="translate(505.514 54.071)" fill="#141457"/>
  </g>
</svg>
