<?xml version="1.0"?>
<svg xmlns="http://www.w3.org/2000/svg" xmlns:xlink="http://www.w3.org/1999/xlink" xmlns:svgjs="http://svgjs.com/svgjs" version="1.1" width="512" height="512" x="0" y="0" viewBox="0 0 512 512" style="enable-background:new 0 0 512 512" xml:space="preserve" class=""><g><g xmlns="http://www.w3.org/2000/svg"><g fill="#57a4ff"><path d="m296 464h16v24h-112v-24h16v-96h80z" fill="#57a4ff" data-original="#57a4ff" style=""/><path d="m160 96h192v48h-192z" fill="#57a4ff" data-original="#57a4ff" style=""/><path d="m160 192h192v48h-192z" fill="#57a4ff" data-original="#57a4ff" style=""/><path d="m160 288h192v48h-192z" fill="#57a4ff" data-original="#57a4ff" style=""/><path d="m200 464h112v24h-112z" fill="#57a4ff" data-original="#57a4ff" style=""/><path d="m216 368h80v96h-80z" fill="#57a4ff" data-original="#57a4ff" style=""/><path d="m160 288h192v48h-192z" fill="#57a4ff" data-original="#57a4ff" style=""/><path d="m160 192h192v48h-192z" fill="#57a4ff" data-original="#57a4ff" style=""/><path d="m160 96h192v48h-192z" fill="#57a4ff" data-original="#57a4ff" style=""/><path d="m160 16h192v48h-192z" fill="#57a4ff" data-original="#57a4ff" style=""/></g><g fill="#004fac"><path d="m456 208a40 40 0 0 0 2.64-79.91 55.985 55.985 0 0 0 -74.64-26.68v-37.41a8 8 0 0 0 -8-8h-16v-40a8 8 0 0 0 -8-8h-192a8 8 0 0 0 -8 8v40h-16a8 8 0 0 0 -8 8v112.84a55.978 55.978 0 0 0 -95.55 32.06 32 32 0 0 0 7.55 63.1h88v208h-112a8 8 0 0 0 0 16h448a8 8 0 0 0 0-16h-80v-272zm-72-87.99a39.988 39.988 0 0 1 61.75 18.76 8.028 8.028 0 0 0 8.18 5.33c.82-.07 1.48-.1 2.07-.1a24 24 0 0 1 0 48h-72zm-256 135.99h-88a16 16 0 0 1 0-32 8 8 0 0 0 8-8 40 40 0 0 1 77.75-13.23 7.922 7.922 0 0 0 2.25 3.34zm40-232h176v32h-176zm136 456h-96v-8h96zm-80-24v-80h64v80zm144 24h-48v-16a8 8 0 0 0 -8-8h-8v-88a8 8 0 0 0 -8-8h-80a8 8 0 0 0 -8 8v88h-8a8 8 0 0 0 -8 8v16h-48v-408h224z" fill="#1378f8" data-original="#004fac" style="" class=""/><path d="m352 280h-192a8 8 0 0 0 -8 8v48a8 8 0 0 0 8 8h192a8 8 0 0 0 8-8v-48a8 8 0 0 0 -8-8zm-8 48h-176v-32h176z" fill="#1378f8" data-original="#004fac" style="" class=""/><path d="m352 184h-192a8 8 0 0 0 -8 8v48a8 8 0 0 0 8 8h192a8 8 0 0 0 8-8v-48a8 8 0 0 0 -8-8zm-8 48h-176v-32h176z" fill="#1378f8" data-original="#004fac" style="" class=""/><path d="m352 88h-192a8 8 0 0 0 -8 8v48a8 8 0 0 0 8 8h192a8 8 0 0 0 8-8v-48a8 8 0 0 0 -8-8zm-8 48h-176v-32h176z" fill="#1378f8" data-original="#004fac" style="" class=""/><path d="m496 480h-8a8 8 0 0 0 0 16h8a8 8 0 0 0 0-16z" fill="#1378f8" data-original="#004fac" style="" class=""/></g></g></g></svg>
