<?xml version="1.0"?>
<svg xmlns="http://www.w3.org/2000/svg" xmlns:xlink="http://www.w3.org/1999/xlink" xmlns:svgjs="http://svgjs.com/svgjs" version="1.1" width="512" height="512" x="0" y="0" viewBox="0 0 512.013 512.013" style="enable-background:new 0 0 512 512" xml:space="preserve" class=""><g>
<g xmlns="http://www.w3.org/2000/svg">
	<path style="" d="M352.002,234.68c5.891,0,10.667-4.776,10.667-10.667c0-5.891-4.776-10.667-10.667-10.667h-24.683   l-15.851,21.333H352.002z" fill="#1378f8" data-original="#009688" class=""/>
	<path style="" d="M96.002,277.346c-5.891,0-10.667,4.776-10.667,10.667c0,5.891,4.776,10.667,10.667,10.667h32v42.667   c0.225,9.318,1.895,18.544,4.949,27.349l16.917-22.869c-0.128-1.493-0.533-3.008-0.533-4.48V298.68h35.349l15.851-21.333h-51.2   V234.68h82.645l15.765-21.333h-98.411V170.68c0-49.323,60.565-106.667,138.667-106.667c21.462-0.099,42.82,2.978,63.381,9.131   l13.291-18.005c-24.69-8.376-50.601-12.586-76.672-12.459c-91.563,0-160,67.584-160,128v42.667h-32   c-5.891,0-10.667,4.776-10.667,10.667c0,5.891,4.776,10.667,10.667,10.667h32v42.667H96.002z" fill="#1378f8" data-original="#009688" class=""/>
	<path style="" d="M405.335,288.013c0-5.891-4.776-10.667-10.667-10.667H280.023l-15.765,21.333h130.411   C400.559,298.68,405.335,293.904,405.335,288.013z" fill="#1378f8" data-original="#009688" class=""/>
	<path style="" d="M407.468,105.016c12.007,11.659,18.91,27.597,19.2,44.331c0,5.891,4.776,10.667,10.667,10.667   c5.891,0,10.667-4.776,10.667-10.667c-0.471-23.477-10.54-45.735-27.861-61.589L407.468,105.016z" fill="#1378f8" data-original="#009688" class=""/>
	<path style="" d="M437.335,352.013c-5.891,0-10.667,4.776-10.667,10.667c0,47.851-60.907,85.333-138.667,85.333   c-38.588,0.017-75.8-14.334-104.384-40.256l-12.8,17.323c32.378,28.516,74.039,44.253,117.184,44.267   c91.221,0,160-45.845,160-106.667C448.002,356.789,443.226,352.013,437.335,352.013z" fill="#1378f8" data-original="#009688" class=""/>
</g>
<path xmlns="http://www.w3.org/2000/svg" style="" d="M74.668,512.013c-5.891,0-10.667-4.776-10.667-10.667c0-2.308,0.749-4.554,2.133-6.4L428.802,4.28  c3.528-4.718,10.212-5.683,14.93-2.155s5.683,10.212,2.155,14.93c-0.006,0.008-0.012,0.017-0.019,0.025L83.202,507.746  C81.187,510.432,78.026,512.013,74.668,512.013z" fill="#f44336" data-original="#f44336" class=""/>
<g xmlns="http://www.w3.org/2000/svg">
</g>
<g xmlns="http://www.w3.org/2000/svg">
</g>
<g xmlns="http://www.w3.org/2000/svg">
</g>
<g xmlns="http://www.w3.org/2000/svg">
</g>
<g xmlns="http://www.w3.org/2000/svg">
</g>
<g xmlns="http://www.w3.org/2000/svg">
</g>
<g xmlns="http://www.w3.org/2000/svg">
</g>
<g xmlns="http://www.w3.org/2000/svg">
</g>
<g xmlns="http://www.w3.org/2000/svg">
</g>
<g xmlns="http://www.w3.org/2000/svg">
</g>
<g xmlns="http://www.w3.org/2000/svg">
</g>
<g xmlns="http://www.w3.org/2000/svg">
</g>
<g xmlns="http://www.w3.org/2000/svg">
</g>
<g xmlns="http://www.w3.org/2000/svg">
</g>
<g xmlns="http://www.w3.org/2000/svg">
</g>
</g></svg>
