<?xml version="1.0"?>
<svg xmlns="http://www.w3.org/2000/svg" xmlns:xlink="http://www.w3.org/1999/xlink" xmlns:svgjs="http://svgjs.com/svgjs" version="1.1" width="512" height="512" x="0" y="0" viewBox="0 0 511.796 511.796" style="enable-background:new 0 0 512 512" xml:space="preserve" class=""><g><g xmlns="http://www.w3.org/2000/svg"><g><path d="m475.073 165.673v-36.35c0-37.203-30.159-67.361-67.361-67.361-37.203 0-67.361 30.159-67.361 67.361v84.709h31v-84.709c0-20.05 16.312-36.361 36.361-36.361s36.362 16.312 36.362 36.361v36.35 48.359h32.469z" fill="#f8f7f8" data-original="#f8f7f8" style=""/><g><path d="m440.334 273.066c-1.687-.514-2.9-1.997-3.09-3.75-4.476-41.291-39.426-73.438-81.908-73.438-8.697 0-17.078 1.35-24.949 3.847-1.913.607-3.995-.132-5.082-1.819-22.538-34.988-61.837-58.159-106.55-58.159-60.947 0-111.831 43.053-123.919 100.403-.363 1.723-1.732 3.066-3.459 3.406-47.584 9.38-83.531 51.17-83.874 101.424-.395 57.67 47.718 104.855 105.389 104.855h300.046c49.771 0 90.952-39.827 91.355-89.597.332-41.042-26.708-75.815-63.959-87.172z" fill="#1378f8" data-original="#badafb" style="" class=""/><path d="m69.679 345.304c.305-44.606 28.66-82.543 68.305-97.067 11.022-4.038 19.644-12.838 23.571-23.9 14.109-39.741 47.505-70.357 88.924-80.585-10.137-2.614-20.771-4.006-31.724-4.006-60.947 0-111.831 43.053-123.919 100.403-.363 1.723-1.732 3.066-3.459 3.407-47.584 9.38-83.53 51.169-83.874 101.423-.397 57.995 47.392 104.855 105.389 104.855h53.943c-53.944-4.231-97.532-49.628-97.156-104.53z" fill="#97c9f9" data-original="#97c9f9" style="" class=""/><path d="m498.754 328.306c-9.708-26.384-31.365-46.99-58.42-55.239-1.687-.514-2.9-1.997-3.09-3.75-4.476-41.291-39.426-73.438-81.908-73.438-8.697 0-17.078 1.349-24.949 3.847-1.913.607-3.995-.131-5.082-1.819-7.567-11.748-17.031-22.154-27.948-30.808-3.951 6.592-6.229 14.296-6.229 22.524v98.79c0 24.233 19.715 43.949 43.949 43.949h145.271c6.57-.001 12.803-1.461 18.406-4.056z" fill="#97c9f9" data-original="#97c9f9" style="" class=""/><g fill="#efedee"><path d="m444.073 145.673v20 48.359h32.469l-1.469-48.359v-20z" fill="#efedee" data-original="#efedee" style="" class=""/><path d="m340.35 145.673h31v68.359h-31z" fill="#efedee" data-original="#efedee" style="" class=""/></g><path d="m480.347 312.361h-145.27c-13.227 0-23.949-10.722-23.949-23.949v-98.79c0-13.227 10.722-23.949 23.949-23.949h145.271c13.227 0 23.949 10.722 23.949 23.949v98.79c-.001 13.226-10.723 23.949-23.95 23.949z" fill="#fbe88c" data-original="#fbe88c" style=""/><path d="m373.133 287.376c-13.227 0-23.949-10.722-23.949-23.949v-97.754h-14.108c-13.227 0-23.949 10.722-23.949 23.949v98.79c0 13.227 10.722 23.949 23.949 23.949h145.271c13.227 0 23.949-10.722 23.949-23.949v-1.036z" fill="#fbe372" data-original="#fbe372" style=""/></g></g><g><path d="m499.926 330.657c-4.023.985-6.487 5.045-5.501 9.068 1.627 6.65 2.425 13.531 2.369 20.453-.366 45.302-37.984 82.157-83.855 82.157h-300.047c-26.285 0-51.063-10.373-69.769-29.206-18.308-18.434-28.295-42.618-28.121-68.098.096-14.084 3.162-27.651 9.112-40.325 1.76-3.75.148-8.216-3.602-9.977s-8.216-.148-9.977 3.602c-6.877 14.652-10.421 30.329-10.532 46.598-.202 29.505 11.333 57.479 32.478 78.77 21.542 21.691 50.1 33.636 80.411 33.636h300.046c54.076 0 98.421-43.53 98.854-97.036.066-8.163-.875-16.286-2.799-24.141-.984-4.023-5.046-6.49-9.067-5.501z" fill="#000000" data-original="#000000" style=""/><path d="m35.194 282.517c2.017 0 4.028-.809 5.506-2.406 14.013-15.141 32.038-25.237 52.128-29.197 4.692-.926 8.361-4.544 9.345-9.218 5.549-26.326 20.129-50.283 41.057-67.457 21.21-17.406 48.032-26.993 75.524-26.993 23.741 0 46.675 6.973 66.322 20.166 3.439 2.31 8.099 1.393 10.408-2.045 2.309-3.439 1.393-8.099-2.045-10.408-22.129-14.859-47.954-22.713-74.685-22.713-30.953 0-61.154 10.795-85.04 30.397-23.025 18.896-39.227 45.098-45.782 73.965-22.421 4.84-42.522 16.33-58.241 33.313-2.813 3.04-2.63 7.785.41 10.599 1.444 1.337 3.271 1.997 5.093 1.997z" fill="#000000" data-original="#000000" style=""/><path d="m482.573 158.26v-28.938c0-10.479-2.142-20.642-6.366-30.208-1.673-3.789-6.101-5.502-9.891-3.831-3.789 1.673-5.504 6.102-3.831 9.891 3.376 7.644 5.087 15.769 5.087 24.148v28.85h-16v-28.85c0-24.185-19.676-43.861-43.862-43.861-24.185 0-43.861 19.676-43.861 43.861v28.85h-16v-28.85c0-33.008 26.854-59.861 59.862-59.861 13.733 0 26.658 4.537 37.377 13.121 3.232 2.59 7.953 2.066 10.542-1.166 2.589-3.233 2.067-7.953-1.166-10.542-13.216-10.584-29.82-16.413-46.753-16.413-41.279 0-74.861 33.583-74.861 74.861v28.938c-16.305 1.147-29.223 14.77-29.223 31.362v98.79c0 17.341 14.108 31.449 31.449 31.449h87.282c4.142 0 7.5-3.358 7.5-7.5s-3.358-7.5-7.5-7.5h-87.282c-9.07 0-16.449-7.379-16.449-16.449v-98.79c0-9.07 7.379-16.449 16.449-16.449h145.271c9.07 0 16.449 7.379 16.449 16.449v98.79c0 9.07-7.379 16.449-16.449 16.449h-26.026c-4.142 0-7.5 3.358-7.5 7.5s3.358 7.5 7.5 7.5h26.026c17.341 0 31.449-14.108 31.449-31.449v-98.79c0-16.592-12.918-30.215-29.223-31.362zm-103.723-28.937c0-15.914 12.947-28.861 28.861-28.861 15.915 0 28.862 12.947 28.862 28.861v28.85h-57.723z" fill="#000000" data-original="#000000" style=""/></g></g></g></svg>
