<?xml version="1.0"?>
<svg xmlns="http://www.w3.org/2000/svg" xmlns:xlink="http://www.w3.org/1999/xlink" xmlns:svgjs="http://svgjs.com/svgjs" version="1.1" width="512" height="512" x="0" y="0" viewBox="0 0 74 74" style="enable-background:new 0 0 512 512" xml:space="preserve" class=""><g><path xmlns="http://www.w3.org/2000/svg" d="m37 71.983a34.891 34.891 0 0 1 -24.749-10.234 1 1 0 1 1 1.414-1.415 33.006 33.006 0 0 0 53.68-36.328 1 1 0 1 1 1.838-.787 34.987 34.987 0 0 1 -32.183 48.764z" fill="#1378f8" data-original="#000000" style=""/><path xmlns="http://www.w3.org/2000/svg" d="m15.561 11.62a1 1 0 0 1 -.64-1.769 29.029 29.029 0 0 1 2.465-1.833 1 1 0 0 1 1.114 1.664 27.7 27.7 0 0 0 -2.3 1.707.994.994 0 0 1 -.639.231z" fill="#1378f8" data-original="#000000" style=""/><path xmlns="http://www.w3.org/2000/svg" d="m5.951 51.88a1 1 0 0 1 -.914-.592 35.231 35.231 0 0 1 -.556-27.238 1 1 0 1 1 1.858.74 33.221 33.221 0 0 0 .524 25.682 1 1 0 0 1 -.912 1.408z" fill="#1378f8" data-original="#000000" style=""/><path xmlns="http://www.w3.org/2000/svg" d="m8.839 18.95a1 1 0 0 1 -.831-1.55 29.009 29.009 0 0 1 1.834-2.47 1 1 0 0 1 1.537 1.279 27.088 27.088 0 0 0 -1.707 2.3 1 1 0 0 1 -.833.441z" fill="#1378f8" data-original="#000000" style=""/><path xmlns="http://www.w3.org/2000/svg" d="m61.04 13.96a1 1 0 0 1 -.707-.293 32.974 32.974 0 0 0 -35.543-7.328 1 1 0 0 1 -.74-1.858 34.972 34.972 0 0 1 37.7 7.772 1 1 0 0 1 -.707 1.707z" fill="#1378f8" data-original="#000000" style=""/><path xmlns="http://www.w3.org/2000/svg" d="m61.042 13.958h-8.229a1 1 0 0 1 0-2h7.229v-7.228a1 1 0 0 1 2 0v8.228a1 1 0 0 1 -1 1z" fill="#1378f8" data-original="#000000" style=""/><path xmlns="http://www.w3.org/2000/svg" d="m12.958 70.27a1 1 0 0 1 -1-1v-8.228a1 1 0 0 1 1-1h8.229a1 1 0 0 1 0 2h-7.229v7.228a1 1 0 0 1 -1 1z" fill="#1378f8" data-original="#000000" style=""/><path xmlns="http://www.w3.org/2000/svg" d="m23.956 30.583a1 1 0 0 1 -1-1v-11.817a1 1 0 0 1 1-1h6.138a1 1 0 0 1 1 1v6.077a1 1 0 0 1 -2 0v-5.077h-4.138v10.817a1 1 0 0 1 -1 1z" fill="#1378f8" data-original="#000000" style=""/><path xmlns="http://www.w3.org/2000/svg" d="m50.651 53.625h-27.3a1 1 0 0 1 -1-1v-17.933a1 1 0 0 1 1-1h27.3a1 1 0 0 1 1 1v17.933a1 1 0 0 1 -1 1zm-26.3-2h25.3v-15.933h-25.3z" fill="#1378f8" data-original="#000000" style=""/><path xmlns="http://www.w3.org/2000/svg" d="m55.5 35.692h-37a1 1 0 0 1 -.684-1.73l18.5-17.317a1 1 0 0 1 1.368 0l18.5 17.317a1 1 0 0 1 -.684 1.73zm-34.469-2h31.938l-15.969-14.947z" fill="#1378f8" data-original="#000000" style=""/></g></svg>
