<svg xmlns="http://www.w3.org/2000/svg" width="78.371" height="57" viewBox="0 0 78.371 57">
  <g id="Groupe_1274" data-name="Groupe 1274" transform="translate(-635 -1528.271)">
    <rect id="Rectangle_204" data-name="Rectangle 204" width="57" height="57" rx="16" transform="translate(656.371 1528.271)" fill="#ffd399"/>
    <g id="Groupe_710" data-name="Groupe 710" transform="translate(0 -149.704)">
      <path id="Tracé_476" data-name="Tracé 476" d="M4.5,31.5H56.167v5H4.5Z" transform="translate(637.167 1689.809)" fill="#bad1f8"/>
      <path id="Tracé_475" data-name="Tracé 475" d="M5.123,50.973V45.14L3.565,17.072,16.057,28,30.957,9.79,45.857,28l12.492-10.93L56.792,45.093l0,5.88Z" transform="translate(636.542 1675.335)" fill="#3f80f1"/>
      <path id="Tracé_474" data-name="Tracé 474" d="M5.123,50.973V45.14L3.565,17.072,16.057,28,30.957,9.79,45.857,28,51.2,23.326,49.643,45.093l0,5.88Z" transform="translate(636.542 1675.335)" fill="#bfd5fa"/>
      <path id="Tracé_463" data-name="Tracé 463" d="M5.123,50.973V45.14L3.565,17.072,16.057,28,30.957,9.79,45.857,28l12.492-10.93L56.792,45.093l0,5.88Z" transform="translate(636.542 1675.335)" fill="none" stroke="#141457" stroke-width="1.5"/>
      <path id="Tracé_465" data-name="Tracé 465" d="M4.5,31.5H49.114v5H4.5Z" transform="translate(637.167 1689.809)" fill="#bad1f8"/>
      <path id="Tracé_466" data-name="Tracé 466" d="M55.667,32.667V36h-50V32.667h50M57.333,31H4v6.667H57.333V31Z" transform="translate(636.832 1689.476)" fill="#141457"/>
      <path id="Tracé_467" data-name="Tracé 467" d="M21.667,5.5a4.167,4.167,0,1,0,4.167,4.167A4.167,4.167,0,0,0,21.667,5.5Z" transform="translate(645.833 1672.475)" fill="#141457"/>
      <path id="Tracé_469" data-name="Tracé 469" d="M38.667,9.5a4.167,4.167,0,1,0,4.167,4.167A4.167,4.167,0,0,0,38.667,9.5Z" transform="translate(657.167 1675.142)" fill="#141457"/>
      <path id="Tracé_471" data-name="Tracé 471" d="M4.667,9.5a4.167,4.167,0,1,0,4.167,4.167A4.167,4.167,0,0,0,4.667,9.5Z" transform="translate(634.5 1675.142)" fill="#141457"/>
    </g>
  </g>
</svg>
