<svg xmlns="http://www.w3.org/2000/svg" width="62.966" height="67.458" viewBox="0 0 62.966 67.458">
  <g id="Groupe_1299" data-name="Groupe 1299" transform="translate(-691.695 -1949.049)">
    <rect id="Rectangle_99" data-name="Rectangle 99" width="57" height="57" rx="16" transform="translate(697.662 1959.506)" fill="#ffa42b" opacity="0.5"/>
    <path id="Tracé_249" data-name="Tracé 249" d="M26.5,52.617c-11.381,0-21-3.979-21-8.689V7h42V43.928C47.5,48.637,37.879,52.617,26.5,52.617Z" transform="translate(686.945 1950.738)" fill="#bfd5fa"/>
    <path id="Soustraction_2" data-name="Soustraction 2" d="M0,43.359V0H12.311V35.735c0,3.226-4.832,6.219-12.309,7.625Z" transform="translate(722.131 1959.186)" fill="#3f80f1"/>
    <path id="Tracé_253" data-name="Tracé 253" d="M47.5,15.183c0,4.252-9.4,7.7-21,7.7s-21-3.447-21-7.7m0,11.634c0,5.025,9.4,9.1,21,9.1s21-4.074,21-9.1" transform="translate(686.945 1954.405)" fill="none" stroke="#141457" stroke-width="1.5"/>
    <path id="Tracé_258" data-name="Tracé 258" d="M26.5,52.617c-11.381,0-21-3.979-21-8.689V7h42V43.928C47.5,48.637,37.879,52.617,26.5,52.617Z" transform="translate(686.945 1950.738)" fill="none" stroke="#141457" stroke-width="1.5"/>
    <g id="Ellipse_29" data-name="Ellipse 29" transform="translate(691.722 1949.049)" fill="#bfd5fa" stroke="#141457" stroke-width="1.5">
      <ellipse cx="21.722" cy="7.965" rx="21.722" ry="7.965" stroke="none"/>
      <ellipse cx="21.722" cy="7.965" rx="20.972" ry="7.215" fill="none"/>
    </g>
    <g id="Groupe_496" data-name="Groupe 496" transform="translate(717.064 1980.184)">
      <path id="Tracé_254" data-name="Tracé 254" d="M34.809,47.118A12.309,12.309,0,1,1,47.118,34.809,12.323,12.323,0,0,1,34.809,47.118Z" transform="translate(-22.5 -22.5)" fill="#141457" stroke="#141457" stroke-width="1"/>
      <path id="Tracé_256" data-name="Tracé 256" d="M26.821,32.576l4.011,4.01,9.022-9.023" transform="translate(-20.564 -20.231)" fill="none" stroke="#fff" stroke-width="2"/>
    </g>
  </g>
</svg>
