<svg xmlns="http://www.w3.org/2000/svg" xmlns:xlink="http://www.w3.org/1999/xlink" width="67.438" height="57" viewBox="0 0 67.438 57">
  <defs>
    <filter id="Tracé_233">
      <feOffset dx="-3" dy="-3" input="SourceAlpha"/>
      <feGaussianBlur result="blur"/>
      <feFlood flood-color="#3f80f1" result="color"/>
      <feComposite operator="out" in="SourceGraphic" in2="blur"/>
      <feComposite operator="in" in="color"/>
      <feComposite operator="in" in2="SourceGraphic"/>
    </filter>
    <filter id="Tracé_235">
      <feOffset dx="-3" dy="-3" input="SourceAlpha"/>
      <feGaussianBlur result="blur-2"/>
      <feFlood flood-color="#3f80f1" result="color-2"/>
      <feComposite operator="out" in="SourceGraphic" in2="blur-2"/>
      <feComposite operator="in" in="color-2"/>
      <feComposite operator="in" in2="SourceGraphic"/>
    </filter>
  </defs>
  <g id="Groupe_1266" data-name="Groupe 1266" transform="translate(-1231.563 -3220)">
    <rect id="Rectangle_181" data-name="Rectangle 181" width="57" height="57" rx="16" transform="translate(1242 3220)" fill="#ffa42b" opacity="0.5"/>
    <g id="Groupe_669" data-name="Groupe 669" transform="translate(789.801 87.886)">
      <g data-type="innerShadowGroup">
        <path id="Tracé_233-2" data-name="Tracé 233" d="M25.268,55.035A23.768,23.768,0,1,1,49.035,31.268,23.794,23.794,0,0,1,25.268,55.035Z" transform="translate(451.012 3129.614)" fill="#bfd5fa"/>
        <g transform="matrix(1, 0, 0, 1, 441.76, 3132.11)" filter="url(#Tracé_233)">
          <path id="Tracé_233-3" data-name="Tracé 233" d="M25.268,55.035A23.768,23.768,0,1,1,49.035,31.268,23.794,23.794,0,0,1,25.268,55.035Z" transform="translate(9.25 -2.5)" fill="#fff"/>
        </g>
      </g>
      <path id="Tracé_234" data-name="Tracé 234" d="M25.268,55.035A23.768,23.768,0,1,1,49.035,31.268,23.794,23.794,0,0,1,25.268,55.035Z" transform="translate(451.012 3129.614)" fill="none" stroke="#141457" stroke-width="1.5"/>
    </g>
    <g id="Groupe_667" data-name="Groupe 667" transform="translate(789 80.986)">
      <g id="Groupe_662" data-name="Groupe 662">
        <g id="Groupe_661" data-name="Groupe 661">
          <g data-type="innerShadowGroup">
            <path id="Tracé_235-2" data-name="Tracé 235" d="M25.268,55.035A23.768,23.768,0,1,1,49.035,31.268,23.794,23.794,0,0,1,25.268,55.035Z" transform="translate(441.813 3136.514)" fill="#bfd5fa"/>
            <g transform="matrix(1, 0, 0, 1, 442.56, 3139.01)" filter="url(#Tracé_235)">
              <path id="Tracé_235-3" data-name="Tracé 235" d="M25.268,55.035A23.768,23.768,0,1,1,49.035,31.268,23.794,23.794,0,0,1,25.268,55.035Z" transform="translate(-0.75 -2.5)" fill="#fff"/>
            </g>
          </g>
          <path id="Tracé_236" data-name="Tracé 236" d="M25.268,55.035A23.768,23.768,0,1,1,49.035,31.268,23.794,23.794,0,0,1,25.268,55.035Z" transform="translate(441.813 3136.514)" fill="none" stroke="#141457" stroke-width="1.5"/>
          <text id="_" data-name="€" transform="translate(456.68 3178.582)" fill="#141457" font-size="30" font-family="Inter-Bold, Inter" font-weight="700"><tspan x="0" y="0">€</tspan></text>
        </g>
      </g>
    </g>
  </g>
</svg>
