<svg xmlns="http://www.w3.org/2000/svg" xmlns:xlink="http://www.w3.org/1999/xlink" width="71.438" height="67.576" viewBox="0 0 71.438 67.576">
  <defs>
    <filter id="Tracé_233">
      <feOffset dx="-3" dy="-3" input="SourceAlpha"/>
      <feGaussianBlur result="blur"/>
      <feFlood flood-color="#3f80f1" result="color"/>
      <feComposite operator="out" in="SourceGraphic" in2="blur"/>
      <feComposite operator="in" in="color"/>
      <feComposite operator="in" in2="SourceGraphic"/>
    </filter>
    <filter id="Tracé_235">
      <feOffset dx="-3" dy="-3" input="SourceAlpha"/>
      <feGaussianBlur result="blur-2"/>
      <feFlood flood-color="#3f80f1" result="color-2"/>
      <feComposite operator="out" in="SourceGraphic" in2="blur-2"/>
      <feComposite operator="in" in="color-2"/>
      <feComposite operator="in" in2="SourceGraphic"/>
    </filter>
  </defs>
  <g id="Groupe_1301" data-name="Groupe 1301" transform="translate(-176.562 -1792.053)">
    <rect id="Rectangle_96" data-name="Rectangle 96" width="57" height="57" rx="16" transform="translate(191 1802.63)" fill="#ffa42b" opacity="0.5"/>
    <g id="Groupe_498" data-name="Groupe 498" transform="translate(80 -163.37)">
      <g data-type="innerShadowGroup">
        <path id="Tracé_233-2" data-name="Tracé 233" d="M25.268,55.035A23.768,23.768,0,1,1,49.035,31.268,23.794,23.794,0,0,1,25.268,55.035Z" transform="translate(105.012 1948.984)" fill="#bfd5fa"/>
        <g transform="matrix(1, 0, 0, 1, 96.56, 1955.42)" filter="url(#Tracé_233)">
          <path id="Tracé_233-3" data-name="Tracé 233" d="M25.268,55.035A23.768,23.768,0,1,1,49.035,31.268,23.794,23.794,0,0,1,25.268,55.035Z" transform="translate(8.45 -6.44)" fill="#fff"/>
        </g>
      </g>
      <path id="Tracé_234" data-name="Tracé 234" d="M25.268,55.035A23.768,23.768,0,1,1,49.035,31.268,23.794,23.794,0,0,1,25.268,55.035Z" transform="translate(105.012 1948.984)" fill="none" stroke="#141457" stroke-width="1.5"/>
      <g data-type="innerShadowGroup">
        <path id="Tracé_235-2" data-name="Tracé 235" d="M25.268,55.035A23.768,23.768,0,1,1,49.035,31.268,23.794,23.794,0,0,1,25.268,55.035Z" transform="translate(95.812 1955.884)" fill="#bfd5fa"/>
        <g transform="matrix(1, 0, 0, 1, 96.56, 1955.42)" filter="url(#Tracé_235)">
          <path id="Tracé_235-3" data-name="Tracé 235" d="M25.268,55.035A23.768,23.768,0,1,1,49.035,31.268,23.794,23.794,0,0,1,25.268,55.035Z" transform="translate(-0.75 0.46)" fill="#fff"/>
        </g>
      </g>
      <path id="Tracé_236" data-name="Tracé 236" d="M25.268,55.035A23.768,23.768,0,1,1,49.035,31.268,23.794,23.794,0,0,1,25.268,55.035Z" transform="translate(95.812 1955.884)" fill="none" stroke="#141457" stroke-width="1.5"/>
      <text id="_" data-name="€" transform="translate(110.68 1997.952)" fill="#141457" font-size="30" font-family="Inter-Bold, Inter" font-weight="700"><tspan x="0" y="0">€</tspan></text>
      <path id="Tracé_237" data-name="Tracé 237" d="M3,3,55.135,55.135" transform="translate(96.612 1953.484)" fill="none" stroke="#141457" stroke-linecap="round" stroke-width="1.5"/>
    </g>
  </g>
</svg>
