<svg xmlns="http://www.w3.org/2000/svg" width="77" height="64.937" viewBox="0 0 77 64.937">
  <g id="Groupe_1268" data-name="Groupe 1268" transform="translate(-387 -3901.657)">
    <rect id="Rectangle_182" data-name="Rectangle 182" width="57" height="57" rx="16" transform="translate(406 3909.594)" fill="#ffd399"/>
    <g id="Tracé_387" data-name="Tracé 387" transform="translate(387 3913.26)" fill="#bfd5fa">
      <path d="M 75.75839996337891 48.52200317382812 L 1.241600155830383 48.52200317382812 L 15.85304832458496 20.727783203125 L 61.14694976806641 20.727783203125 L 75.75839996337891 48.52200317382812 Z" stroke="none"/>
      <path d="M 16.30608749389648 21.477783203125 L 2.483192443847656 47.77200317382812 L 74.51680755615234 47.77200317382812 L 60.69391250610352 21.477783203125 L 16.30608749389648 21.477783203125 M 15.40000152587891 19.977783203125 L 61.59999847412109 19.977783203125 L 77 49.27200317382812 L 0 49.27200317382812 L 15.40000152587891 19.977783203125 Z" stroke="none" fill="#141457"/>
    </g>
    <g id="Ellipse_24" data-name="Ellipse 24" transform="translate(413 3948.885)" fill="#141457" stroke="#141457" stroke-width="1.5">
      <circle cx="4" cy="4" r="4" stroke="none"/>
      <circle cx="4" cy="4" r="4.75" fill="none"/>
    </g>
    <g id="Ellipse_72" data-name="Ellipse 72" transform="translate(405 3937.885)" fill="none" stroke="#141457" stroke-width="1.5">
      <ellipse cx="20.5" cy="9" rx="20.5" ry="9" stroke="none"/>
      <ellipse cx="20.5" cy="9" rx="19.75" ry="8.25" fill="none"/>
    </g>
    <path id="Soustraction_15" data-name="Soustraction 15" d="M15.751,44.978l0,0a97.256,97.256,0,0,1-9.1-12.105C2.234,25.845,0,19.78,0,14.844,0,6.659,7.063,0,15.746,0S31.5,6.659,31.5,14.844c0,4.979-2.233,11.06-6.64,18.072a95.119,95.119,0,0,1-9.105,12.061Zm0-37.064A7.158,7.158,0,0,0,8.4,14.844a7.156,7.156,0,0,0,7.353,6.924,7.155,7.155,0,0,0,7.35-6.924A7.157,7.157,0,0,0,15.751,7.915Z" transform="translate(409.999 3902.406)" fill="#3f80f1"/>
    <path id="Soustraction_14" data-name="Soustraction 14" d="M12.933,42.1h0C9.9,38.677,0,26.6,0,14.842,0,6.658,7.065,0,15.75,0c4.4,0,7.584.952,9.722,2.912,2.159,1.978,3.208,4.939,3.208,9.05,0,4.98-2.234,11.061-6.641,18.075A95.394,95.394,0,0,1,12.934,42.1ZM15.751,7.916A7.156,7.156,0,0,0,8.4,14.841a7.156,7.156,0,0,0,7.35,6.926A7.155,7.155,0,0,0,23.1,14.841,7.155,7.155,0,0,0,15.751,7.916Z" transform="translate(409.999 3902.406)" fill="#bad1f8"/>
    <path id="Soustraction_13" data-name="Soustraction 13" d="M15.751,44.978l0,0a97.256,97.256,0,0,1-9.1-12.105C2.234,25.845,0,19.78,0,14.844,0,6.659,7.063,0,15.746,0S31.5,6.659,31.5,14.844c0,4.979-2.233,11.06-6.64,18.072a95.119,95.119,0,0,1-9.105,12.061Zm0-37.064A7.158,7.158,0,0,0,8.4,14.844a7.156,7.156,0,0,0,7.353,6.924,7.155,7.155,0,0,0,7.35-6.924A7.157,7.157,0,0,0,15.751,7.915Z" transform="translate(410 3902.406)" fill="none" stroke="#141457" stroke-width="1.5"/>
  </g>
</svg>
