<svg xmlns="http://www.w3.org/2000/svg" width="431.6510009765625" height="83.71700286865234" style=""><rect id="backgroundrect" width="100%" height="100%" x="0" y="0" fill="none" stroke="none"/><g class="currentLayer" style=""><title>Layer 1</title><g id="svg_1" class="" fill="#ffffff" fill-opacity="1"><g style="isolation:isolate" id="svg_2" fill="#ffffff" fill-opacity="1"><path d="M98.64689177890034,49.876730330655775 v4.038468092679977 h-16.83730543255806 v-21.745597422122955 h16.43470122885704 v4.038468092679977 h-11.43197121620178 v4.721901154518127 h10.096791534483433 v3.914207535982132 H86.80983114786358 v5.032552546262741 z" fill="#ffffff" id="svg_3" fill-opacity="1"/><path d="M100.57106649936645,52.361941464612684 l1.615387237071991,-3.4792955875396725 a11.439426849603652,11.439426849603652 0 0 0 5.8098023284077644,1.615387237071991 c2.2366900205612184,0 3.0754487782716753,-0.5908589470982556 3.0754487782716753,-1.5228131223320962 c0,-2.7337322473526005 -10.096791534483433,0.06213027834892278 -10.096791534483433,-6.61749594694376 c0,-3.168644195795059 2.857992804050445,-5.405334216356277 7.7358409572243705,-5.405334216356277 c2.298820298910141,0 4.846161711215973,0.5287286687493327 6.431105111896993,1.4606828439831734 l-1.615387237071991,3.4482304483652113 a9.60161321604252,9.60161321604252 0 0 0 -4.815717874825001,-1.2426055669784546 c-2.1745597422122955,0 -3.1065139174461365,0.6834330618381501 -3.1065139174461365,1.5532569587230682 c0,2.857992804050445 10.096791534483433,0.0931954175233842 10.096791534483433,6.679004922509193 c0,3.1065139174461365 -2.889679246008397,5.312760101616383 -7.890545350313186,5.312760101616383 C104.98293756492347,54.16371953673149 102.12432345808952,53.38709105736996 100.57106649936645,52.361941464612684 z" fill="#ffffff" id="svg_4" fill-opacity="1"/><path d="M129.462267234399,53.10750480479979 a6.93063254982233,6.93063254982233 0 0 1 -3.945272675156593,1.0562147319316866 c-3.9458939779400826,0 -6.244714276850224,-2.019855349123478 -6.244714276850224,-5.9961931634545325 v-6.865395757555962 h-2.5790278542637823 v-3.7278167009353638 h2.5790278542637823 v-4.069533231854439 h4.846161711215973 v4.069533231854439 h4.162728649377823 v3.7278167009353638 h-4.162728649377823 v6.803265479207038 c0,1.4289964020252226 0.7772497821450235,2.2056248813867567 2.0819856274724007,2.2056248813867567 a3.2661887328028683,3.2661887328028683 0 0 0 1.957103767991066,-0.6213027834892273 z" fill="#ffffff" id="svg_5" fill-opacity="1"/><path d="M131.6051405346534,32.168358395645846 c0,-1.522191819548607 1.2115404278039934,-2.7026671081781384 3.013318499922752,-2.7026671081781384 s3.013318499922752,1.1183450102806092 3.013318499922752,2.6094716906547557 c0,1.615387237071991 -1.2115404278039934,2.795862525701523 -3.013318499922752,2.795862525701523 S131.6051405346534,33.690550215194484 131.6051405346534,32.168358395645846 zm0.5902376443147661,5.032552546262741 h4.846161711215973 v16.713044875860213 h-4.846161711215973 z" fill="#ffffff" id="svg_6" fill-opacity="1"/><path d="M169.78606048841687,44.34589295203472 v9.5680628657341 h-4.846161711215973 v-8.822499525547027 c0,-2.7020458053946497 -1.2115404278039934,-3.944651372373105 -3.168644195795059,-3.944651372373105 c-2.1745597422122955,0 -3.6973728645443917,1.3979312628507614 -3.6973728645443917,4.380184623599052 v8.387587577104568 h-4.846161711215973 v-8.822499525547027 c0,-2.7020458053946497 -1.1494101494550706,-3.944651372373105 -3.168644195795059,-3.944651372373105 c-2.1441159058213235,0 -3.6656864225864414,1.3979312628507614 -3.6656864225864414,4.380184623599052 v8.387587577104568 h-4.846161711215973 v-16.713044875860213 h4.629327039778232 v1.9260386288166047 a6.768472523331642,6.768472523331642 0 0 1 5.25000852048397,-2.1745597422122955 c2.330506740868092,0 4.3186756480336195,0.90088903605938 5.499150936663152,2.7337322473526005 a7.51776368021965,7.51776368021965 0 0 1 6.026636999845504,-2.7337322473526005 C166.9274463815829,36.95238982851293 169.78606048841687,39.25121012742302 169.78606048841687,44.34589295203472 z" fill="#ffffff" id="svg_7" fill-opacity="1"/><path d="M190.59846112973895,46.92492080629847 h-12.644132946789265 c0.4659770876169208,2.0813643246889115 2.2366900205612184,3.3550350308418277 4.78403143286705,3.3550350308418277 a5.664417477071286,5.664417477071286 0 0 0 4.193793788552284,-1.615387237071991 l2.5790278542637823,2.795862525701523 c-1.5532569587230682,1.771334235727787 -3.8831423968076706,2.703288410961628 -6.896460896730423,2.703288410961628 c-5.7781158864498146,0 -9.537619029343128,-3.635242586195469 -9.537619029343128,-8.606286156892777 c0,-5.00086610430479 3.821633421242237,-8.605043551325798 8.916316245853901,-8.605043551325798 c4.908291989564896,0 8.698238968849182,3.2929047524929045 8.698238968849182,8.66779513245821 C190.69165654726237,45.99296663106463 190.62952626891342,46.521073997030484 190.59846112973895,46.92492080629847 zm-12.706884527921678,-2.826927664875984 h8.232883184015751 a4.174533402264118,4.174533402264118 0 0 0 -8.232883184015751,0 z" fill="#ffffff" id="svg_8" fill-opacity="1"/><path d="M204.29756620289288,36.95238982851293 v4.473380041122437 c-0.4038468092679982,-0.03044383639097216 -0.7144982010126113,-0.06213027834892278 -1.0872798711061478,-0.06213027834892278 c-2.671601969003677,0 -4.4423149019479755,1.4594402384161949 -4.4423149019479755,4.6597708761692065 v7.890545350313186 h-4.846161711215973 v-16.713044875860213 h4.6287057369947435 v2.2050035786032676 C199.73099074424715,37.79176988900687 201.71915965141272,36.95238982851293 204.29756620289288,36.95238982851293 z" fill="#ffffff" id="svg_9" fill-opacity="1"/><path d="M205.81975802244153,51.11933589763423 a3.013318499922752,3.013318499922752 0 0 1 6.026636999845504,0 a3.013318499922752,3.013318499922752 0 1 1 -6.026636999845504,0 z" fill="#ffffff" id="svg_10" fill-opacity="1"/><path d="M213.67923823358035,45.55743337983867 c0,-5.032552546262741 3.8831423968076706,-8.605043551325798 9.31954175233841,-8.605043551325798 c3.5103607267141346,0 6.275158113241195,1.522191819548607 7.487319843828678,4.256545369684696 l-3.7595031428933146,2.0186127435564996 a4.1689416772127155,4.1689416772127155 0 0 0 -3.7595031428933146,-2.298820298910141 c-2.454145994782448,0 -4.380184623599052,1.707961351811886 -4.380184623599052,4.628084434211254 s1.9260386288166047,4.629948342561722 4.380184623599052,4.629948342561722 a4.113024426698685,4.113024426698685 0 0 0 3.7595031428933146,-2.298820298910141 l3.7595031428933146,2.05029918551445 c-1.2115404278039934,2.671601969003677 -3.976337814331055,4.224858927726745 -7.487319843828678,4.224858927726745 C217.56238063038802,54.16371953673149 213.67923823358035,50.59060722888489 213.67923823358035,45.55743337983867 z" fill="#ffffff" id="svg_11" fill-opacity="1"/><path d="M231.82065820868218,45.55743337983867 c0,-5.032552546262741 3.88376369959116,-8.605043551325798 9.195281195640565,-8.605043551325798 s9.164837359249592,3.572491005063057 9.164837359249592,8.605043551325798 s-3.8520772576332094,8.606286156892777 -9.164837359249592,8.606286156892777 S231.82065820868218,50.59060722888489 231.82065820868218,45.55743337983867 zm13.45244786810875,0 c0,-2.8890579432249073 -1.8334645140767099,-4.628084434211254 -4.256545369684696,-4.628084434211254 s-4.286989206075669,1.7396477937698362 -4.286989206075669,4.628084434211254 s1.8639083504676819,4.629948342561722 4.286989206075669,4.629948342561722 S245.27310607679095,48.447112625847105 245.27310607679095,45.55743337983867 z" fill="#ffffff" id="svg_12" fill-opacity="1"/><path d="M281.65100535286865,44.34589295203472 v9.5680628657341 h-4.846161711215973 v-8.822499525547027 c0,-2.7020458053946497 -1.2121617305874826,-3.944651372373105 -3.168644195795059,-3.944651372373105 c-2.1745597422122955,0 -3.6973728645443917,1.3979312628507614 -3.6973728645443917,4.380184623599052 v8.387587577104568 h-4.846161711215973 v-8.822499525547027 c0,-2.7020458053946497 -1.1500314522385597,-3.944651372373105 -3.168644195795059,-3.944651372373105 c-2.1434946030378343,0 -3.6656864225864414,1.3979312628507614 -3.6656864225864414,4.380184623599052 v8.387587577104568 h-4.846161711215973 v-16.713044875860213 h4.629327039778232 v1.9260386288166047 a6.772200340032578,6.772200340032578 0 0 1 5.25062982326746,-2.1745597422122955 c2.3298854380846024,0 4.31805434525013,0.90088903605938 5.498529633879661,2.7337322473526005 a7.51776368021965,7.51776368021965 0 0 1 6.026636999845504,-2.7337322473526005 C278.7930125488183,36.95238982851293 281.65100535286865,39.25121012742302 281.65100535286865,44.34589295203472 z" fill="#ffffff" id="svg_13" fill-opacity="1"/></g><g id="svg_14" fill="#ffffff" fill-opacity="1"><path d="M49.60433775520718,52.12025468183543 H29.449896761600144 a1.5265409390330313,1.5265409390330313 0 0 1 -1.5265409390330313,-1.5265409390330313 h0 V37.76505386931683 a1.5259196362495426,1.5259196362495426 0 0 1 0.6113619389533996,-1.2221025751233099 L38.71849168569244,28.910246599028326 a1.5277835446000099,1.5277835446000099 0 0 1 1.8434053586125376,0.00994084453582765 l9.970667069435118,7.6333259979486465 a1.524677030682564,1.524677030682564 0 0 1 0.5989358832836156,1.2121617305874826 v12.828038570702075 a1.5265409390330313,1.5265409390330313 0 0 1 -1.5265409390330313,1.5265409390330313 zm-18.627900054574013,-3.0530818780660627 h17.10198041832447 V38.51807284290577 l-8.453445672154427,-6.4714897928237916 L30.977059003416656,38.52801368744157 z" fill="#ffffff" id="svg_15" fill-opacity="1"/><path d="M68.12848024493846,62.678674184451324 L59.67006415051617,56.207805694411036 a1.5265409390330313,1.5265409390330313 0 0 0 -2.1310685473680495,0.2808288581371308 a22.854622890651225,22.854622890651225 0 1 1 3.0300936750769614,-5.118913633167744 a1.5209492139816283,1.5209492139816283 0 0 0 0.663551372766495,1.9372220789194106 h0 a1.5277835446000099,1.5277835446000099 0 0 0 2.075151296854019,-0.6014210944175726 c0.022366900205612203,-0.0403846809267998 0.04286989206075675,-0.08263327020406726 0.06213027834892278,-0.12426055669784547 a26.003385397374633,26.003385397374633 0 1 0 -4.3919893764853475,6.943058605492116 l7.344420203626155,5.615955859959126 a1.530268755733967,1.530268755733967 0 0 0 2.1441159058213235,-0.2870418859720231 a1.5240557278990745,1.5240557278990745 0 0 0 -0.33798871421813986,-2.1745597422122955 z" fill="#ffffff" id="svg_16" fill-opacity="1"/></g></g></g></svg>
