<svg xmlns="http://www.w3.org/2000/svg" width="431.651" height="83.717" viewBox="0 0 431.651 83.717"><g transform="translate(-85 -244)"><g transform="translate(-652.373 -254.796)" style="isolation:isolate"><path d="M874.475,552.81v6.5h-27.1v-35h26.452v6.5h-18.4v7.6h16.251v6.3H855.423v8.1Z" fill="#141457"/><path d="M877.572,556.81l2.6-5.6a18.412,18.412,0,0,0,9.351,2.6c3.6,0,4.95-.951,4.95-2.451,0-4.4-16.251.1-16.251-10.651,0-5.1,4.6-8.7,12.451-8.7,3.7,0,7.8.851,10.351,2.351l-2.6,5.55a15.454,15.454,0,0,0-7.751-2c-3.5,0-5,1.1-5,2.5,0,4.6,16.251.15,16.251,10.75,0,5-4.651,8.551-12.7,8.551C884.673,559.71,880.072,558.46,877.572,556.81Z" fill="#141457"/><path d="M924.073,558.01a11.155,11.155,0,0,1-6.35,1.7c-6.351,0-10.051-3.251-10.051-9.651v-11.05h-4.151v-6h4.151v-6.55h7.8v6.55h6.7v6h-6.7v10.95c0,2.3,1.251,3.55,3.351,3.55a5.257,5.257,0,0,0,3.15-1Z" fill="#141457"/><path d="M927.522,524.308c0-2.45,1.95-4.35,4.85-4.35s4.85,1.8,4.85,4.2c0,2.6-1.95,4.5-4.85,4.5S927.522,526.758,927.522,524.308Zm.95,8.1h7.8v26.9h-7.8Z" fill="#141457"/><path d="M988.975,543.908v15.4h-7.8v-14.2c0-4.349-1.95-6.349-5.1-6.349-3.5,0-5.951,2.25-5.951,7.05v13.5h-7.8v-14.2c0-4.349-1.85-6.349-5.1-6.349-3.451,0-5.9,2.25-5.9,7.05v13.5h-7.8v-26.9h7.451v3.1a10.894,10.894,0,0,1,8.45-3.5c3.751,0,6.951,1.45,8.851,4.4a12.1,12.1,0,0,1,9.7-4.4C984.374,532.008,988.975,535.708,988.975,543.908Z" fill="#141457"/><path d="M1022.473,548.059h-20.351c.75,3.35,3.6,5.4,7.7,5.4a9.117,9.117,0,0,0,6.75-2.6l4.151,4.5c-2.5,2.851-6.25,4.351-11.1,4.351-9.3,0-15.351-5.851-15.351-13.852,0-8.049,6.151-13.85,14.351-13.85,7.9,0,14,5.3,14,13.951C1022.623,546.559,1022.523,547.409,1022.473,548.059Zm-20.452-4.55h13.251a6.719,6.719,0,0,0-13.251,0Z" fill="#141457"/><path d="M1044.522,532.008v7.2c-.65-.049-1.15-.1-1.75-.1-4.3,0-7.15,2.349-7.15,7.5v12.7h-7.8v-26.9h7.45v3.549C1037.172,533.359,1040.372,532.008,1044.522,532.008Z" fill="#141457"/><path d="M1046.972,554.81a4.85,4.85,0,0,1,9.7,0,4.85,4.85,0,1,1-9.7,0Z" fill="#141457"/><path d="M1059.622,545.858c0-8.1,6.25-13.85,15-13.85,5.65,0,10.1,2.45,12.051,6.851l-6.051,3.249a6.71,6.71,0,0,0-6.051-3.7c-3.95,0-7.05,2.749-7.05,7.449s3.1,7.452,7.05,7.452a6.62,6.62,0,0,0,6.051-3.7l6.051,3.3c-1.95,4.3-6.4,6.8-12.051,6.8C1065.872,559.71,1059.622,553.959,1059.622,545.858Z" fill="#141457"/><path d="M1088.821,545.858c0-8.1,6.251-13.85,14.8-13.85s14.751,5.75,14.751,13.85-6.2,13.852-14.751,13.852S1088.821,553.959,1088.821,545.858Zm21.652,0c0-4.65-2.951-7.449-6.851-7.449s-6.9,2.8-6.9,7.449,3,7.452,6.9,7.452S1110.473,550.509,1110.473,545.858Z" fill="#141457"/><path d="M1169.024,543.908v15.4h-7.8v-14.2c0-4.349-1.951-6.349-5.1-6.349-3.5,0-5.951,2.25-5.951,7.05v13.5h-7.8v-14.2c0-4.349-1.851-6.349-5.1-6.349-3.45,0-5.9,2.25-5.9,7.05v13.5h-7.8v-26.9h7.451v3.1a10.9,10.9,0,0,1,8.451-3.5c3.75,0,6.95,1.45,8.85,4.4a12.1,12.1,0,0,1,9.7-4.4C1164.424,532.008,1169.024,535.708,1169.024,543.908Z" fill="#141457"/></g><g transform="translate(-639.054 -254.796)"><path d="M782.221,556.421H749.782a2.457,2.457,0,0,1-2.457-2.457h0V533.316a2.456,2.456,0,0,1,.984-1.967L764.7,519.064a2.459,2.459,0,0,1,2.967.016l16.048,12.286a2.454,2.454,0,0,1,.964,1.951v20.647a2.457,2.457,0,0,1-2.457,2.457Zm-29.982-4.914h27.526V534.528l-13.606-10.416L752.24,534.544Z" fill="#141457"/><path d="M812.036,573.415,798.422,563a2.457,2.457,0,0,0-3.43.452,36.785,36.785,0,1,1,4.877-8.239,2.448,2.448,0,0,0,1.068,3.118h0a2.459,2.459,0,0,0,3.34-.968c.036-.065.069-.133.1-.2a41.853,41.853,0,1,0-7.069,11.175l11.821,9.039a2.463,2.463,0,0,0,3.451-.462,2.453,2.453,0,0,0-.544-3.5Z" fill="#141457"/></g></g></svg>
