<svg xmlns="http://www.w3.org/2000/svg" xmlns:xlink="http://www.w3.org/1999/xlink" width="76.982" height="65.91" viewBox="0 0 76.982 65.91">
  <defs>
    <filter id="Tracé_235">
      <feOffset dx="-3" dy="-3" input="SourceAlpha"/>
      <feGaussianBlur result="blur"/>
      <feFlood flood-color="#3f80f1" result="color"/>
      <feComposite operator="out" in="SourceGraphic" in2="blur"/>
      <feComposite operator="in" in="color"/>
      <feComposite operator="in" in2="SourceGraphic"/>
    </filter>
  </defs>
  <g id="Groupe_1280" data-name="Groupe 1280" transform="translate(0.75 0.75)">
    <rect id="Rectangle_214" data-name="Rectangle 214" width="57" height="57" rx="16" transform="translate(19.232 8.16)" fill="#ffd399"/>
    <g id="Groupe_725" data-name="Groupe 725">
      <g data-type="innerShadowGroup">
        <path id="Tracé_235-2" data-name="Tracé 235" d="M30.812,66.125A29.312,29.312,0,1,1,60.125,36.812,29.345,29.345,0,0,1,30.812,66.125Z" transform="translate(-1.5 -7.5)" fill="#bfd5fa"/>
        <g transform="matrix(1, 0, 0, 1, -0.75, -0.75)" filter="url(#Tracé_235)">
          <path id="Tracé_235-3" data-name="Tracé 235" d="M30.812,66.125A29.312,29.312,0,1,1,60.125,36.812,29.345,29.345,0,0,1,30.812,66.125Z" transform="translate(-0.75 -6.75)" fill="#fff"/>
        </g>
      </g>
      <path id="Tracé_236" data-name="Tracé 236" d="M30.812,66.125A29.312,29.312,0,1,1,60.125,36.812,29.345,29.345,0,0,1,30.812,66.125Z" transform="translate(-1.5 -7.5)" fill="none" stroke="#141457" stroke-width="1.5"/>
      <text id="_2" data-name="2" transform="translate(18.829 41.866)" fill="#141457" font-size="36" font-family="Inter-Bold, Inter" font-weight="700"><tspan x="0" y="0">2</tspan></text>
    </g>
  </g>
</svg>
